<svg width="12" height="10" viewBox="0 0 12 10" fill="none" xmlns="http://www.w3.org/2000/svg">
<path d="M7.78032 5.595C8.49126 5.595 9.52076 5.447 9.52076 4.59869C9.52067 4.53378 9.51496 4.46899 9.5037 4.40506L9.08282 2.56038C8.98613 2.15619 8.90076 1.96825 8.18982 1.61531C7.63813 1.33063 6.43801 0.869438 6.0797 0.869438C5.74407 0.869438 5.64739 1.29644 5.25495 1.29644C4.87389 1.29644 4.5952 0.977626 4.23682 0.977626C3.89557 0.977626 3.67376 1.21106 3.50313 1.68931C3.50313 1.68931 3.02538 3.03869 2.96282 3.23794C2.95342 3.27319 2.94958 3.30969 2.95145 3.34613C2.94576 3.86988 5.01038 5.58931 7.78032 5.595ZM9.62882 4.946C9.72551 5.41281 9.72551 5.46406 9.72551 5.521C9.72551 6.31813 8.83251 6.76219 7.6552 6.76219C4.99332 6.76219 2.66707 5.20219 2.66707 4.17169C2.66675 4.02877 2.69579 3.8873 2.75238 3.75606C1.79676 3.80156 0.556885 3.97238 0.556885 5.06556C0.556885 6.859 4.79995 9.06806 8.1557 9.06806C10.7323 9.06806 11.3806 7.90088 11.3806 6.97856C11.3806 6.2555 10.755 5.43563 9.62882 4.946Z" fill="#EE0000"/>
<path d="M9.62875 4.946C9.72543 5.41288 9.72543 5.46406 9.72543 5.521C9.72543 6.31813 8.83243 6.76219 7.65512 6.76219C4.99325 6.76219 2.667 5.20219 2.667 4.17169C2.66666 4.02877 2.69567 3.88731 2.75225 3.75606L2.96275 3.23794C2.95334 3.27319 2.9495 3.30969 2.95137 3.34613C2.95137 3.86994 5.016 5.58931 7.78025 5.58931C8.49118 5.58931 9.52068 5.44131 9.52068 4.593C9.52059 4.52809 9.51488 4.4633 9.50362 4.39938L9.62875 4.946Z" fill="black"/>
</svg>
