<svg width="396" height="422" viewBox="0 0 396 422" fill="none" xmlns="http://www.w3.org/2000/svg"><path d="m231.804 407.496-.06.492a7.94 7.94 0 0 1-1.422 3.661l-.18.253a9.2 9.2 0 0 1-2.839 2.588l-1.968 1.148a10 10 0 0 1-5.038 1.362h-10.729a8.6 8.6 0 0 0-5.443 1.943 8.6 8.6 0 0 1-7.088 1.784l-35.862-6.998a10 10 0 0 1-2.262-.729l-41.265-18.972a10 10 0 0 1-2.129-1.325l-13.063-10.614a10 10 0 0 1-2.925-3.915l-2.94-7.057a10 10 0 0 1-.645-5.417L99 346.5l2.738-15.059a10 10 0 0 1 .926-2.746L116.5 301.5l13-22 9-16.5 6.25-10.663a6.89 6.89 0 0 0-.321-7.467l-2.161-3.05c-1.798-2.539-5.597-2.445-7.268.18l-18.5 2-8.971 1.495A7.324 7.324 0 0 1 99 238.27v-2.594a6.675 6.675 0 0 1 6.676-6.676H129.5l1.221-2.036c.185-.308.329-.639.428-.985a4.11 4.11 0 0 1 3.95-2.979h11.721a6.18 6.18 0 0 0 2.764-11.708l-.926-.463a7.86 7.86 0 0 0-3.512-.829h-13.8a10 10 0 0 1-9.839-8.211l-.265-1.46a10 10 0 0 1-.122-2.674L123 176.5l1.627-7.672a10 10 0 0 0-6.717-11.594l-19.845-6.391a10 10 0 0 1-2.028-.913l-21.776-12.888a10 10 0 0 1-2.971-2.692l-13.354-18.21A10 10 0 0 1 56 110.226V96.684A10 10 0 0 1 59.598 89l.658-.547a10 10 0 0 1 3.945-2.012l106.474-26.98a10 10 0 0 0 3.357-1.556l4.244-3.032a10 10 0 0 1 2.651-1.35l2.65-.883a10 10 0 0 0 6.821-8.9l1.024-17.42c.052-.877.219-1.743.496-2.576l3.485-10.455a10 10 0 0 1 1.805-3.24l4.491-5.389a8.94 8.94 0 0 1 10.005-2.647l24.408 9.153a10 10 0 0 1 1.697.827L266.5 29.5 302 54l16.955 10.832c.694.444 1.331.971 1.895 1.57l31.027 32.936q.622.662 1.117 1.425l7.551 11.67A10 10 0 0 0 368.94 117h19.232c1.811 0 3.547.719 4.828 2l.25.25a5.976 5.976 0 0 1-3.758 10.182l-6.987.548c-6.559.514-10.843 7.113-8.643 13.314l11.562 32.584a10 10 0 0 1 .576 3.344v16.155c0 1.075-.173 2.143-.513 3.163l-4.702 14.105a10 10 0 0 0-.413 1.748l-2.012 14.089a10 10 0 0 1-1.879 4.558l-14.624 19.637a10 10 0 0 1-3.369 2.88l-26.317 13.828c-.777.408-1.605.712-2.461.905l-22.128 4.967a10 10 0 0 1-2.191.243h-10.795c-7.29 0-12.13 7.548-9.088 14.173l12.83 27.94a10 10 0 0 0 10.647 5.705l8.454-1.335a10 10 0 0 1 5.859.849l1.15.548a10 10 0 0 1 5.617 10.317l-2.599 20.015c-.777 5.984 3.882 11.288 9.917 11.288h8.062a5.555 5.555 0 0 1 5.555 5.555v.506a6.656 6.656 0 0 1-5.9 6.613l-.435.05c-5.199.594-8.018 6.39-5.276 10.846l.202.327a7.115 7.115 0 0 1-3.208 10.248l-3.115 1.363c-1.489.651-3.116.93-4.737.811l-15.888-1.162a10 10 0 0 1-4.033-1.181l-8.884-4.812a5.9 5.9 0 0 1-2.023-1.808l-4.477-6.424c-1.914-2.746-6.226-1.391-6.226 1.956a3.42 3.42 0 0 1-2.52 3.299l-.23.063a3.73 3.73 0 0 0-2.75 3.6v1.696a5.95 5.95 0 0 1-2.999 5.168l-5.195 2.968a10 10 0 0 1-4.962 1.318h-13.318a10 10 0 0 1-2.983-.455l-5.09-1.591a7.7 7.7 0 0 1-2.623-1.429c-4.67-3.891-11.795-1.064-12.526 4.971" fill="#2D007C"/><path d="M135 242c1.671-2.625 5.47-2.719 7.268-.18l2.161 3.05a6.89 6.89 0 0 1 .321 7.467L138.5 263l-9 16.5-13 22-13.836 27.195a10 10 0 0 0-.926 2.746L99 346.5l-3.055 19.2a10 10 0 0 0 .646 5.417l2.94 7.057a10 10 0 0 0 2.925 3.915l13.063 10.614c.652.529 1.367.974 2.129 1.325L158.913 413a10 10 0 0 0 2.262.729l35.862 6.998a8.6 8.6 0 0 0 7.088-1.784 8.6 8.6 0 0 1 5.443-1.943h10.729c1.77 0 3.509-.47 5.038-1.362l1.968-1.148a9.2 9.2 0 0 0 2.839-2.588l.18-.253a7.94 7.94 0 0 0 1.422-3.661l.06-.492c.731-6.035 7.856-8.862 12.526-4.971a7.7 7.7 0 0 0 2.623 1.429l5.09 1.591a10 10 0 0 0 2.983.455h13.318a10 10 0 0 0 4.962-1.318l5.195-2.968a5.95 5.95 0 0 0 2.999-5.168v-1.696a3.73 3.73 0 0 1 2.75-3.6l.23-.063a3.42 3.42 0 0 0 2.52-3.299c0-3.347 4.312-4.702 6.226-1.956l4.477 6.424a5.9 5.9 0 0 0 2.023 1.808l8.884 4.812a10 10 0 0 0 4.033 1.181l15.888 1.162c1.621.119 3.248-.16 4.737-.811l3.115-1.363a7.115 7.115 0 0 0 3.208-10.248l-.202-.327c-2.742-4.456.077-10.252 5.276-10.846l.435-.05a6.656 6.656 0 0 0 5.9-6.613v-.506a5.555 5.555 0 0 0-5.555-5.555h-8.062c-6.035 0-10.694-5.304-9.917-11.288l2.599-20.016a10 10 0 0 0-5.617-10.316l-1.15-.548a10 10 0 0 0-5.859-.849l-8.454 1.335a10 10 0 0 1-10.647-5.705l-12.83-27.94c-3.042-6.625 1.798-14.173 9.088-14.173h10.795c.737 0 1.472-.081 2.191-.243l22.128-4.967a10 10 0 0 0 2.461-.905l26.317-13.828a10 10 0 0 0 3.369-2.88l14.624-19.637a10 10 0 0 0 1.879-4.558l2.012-14.089a10 10 0 0 1 .413-1.748l4.702-14.105c.34-1.02.513-2.088.513-3.163v-16.155c0-1.14-.195-2.271-.576-3.344l-11.562-32.584c-2.2-6.201 2.084-12.8 8.643-13.314l6.987-.548a5.976 5.976 0 0 0 3.758-10.182L393 119a6.83 6.83 0 0 0-4.828-2H368.94a10 10 0 0 1-8.395-4.567l-7.551-11.67a10 10 0 0 0-1.117-1.425L320.85 66.404a10 10 0 0 0-1.895-1.57L302 54l-35.5-24.5-28.691-17.506a10 10 0 0 0-1.697-.827l-24.408-9.153a8.94 8.94 0 0 0-10.005 2.647l-4.491 5.39a10 10 0 0 0-1.805 3.239l-3.485 10.455a10 10 0 0 0-.496 2.575l-1.024 17.421a10 10 0 0 1-6.821 8.9l-2.65.884c-.946.315-1.839.77-2.651 1.349l-4.244 3.032a10 10 0 0 1-3.357 1.556L64.201 86.442a10 10 0 0 0-3.945 2.012l-.658.547A10 10 0 0 0 56 96.684v13.542a10 10 0 0 0 1.936 5.914l13.354 18.21a10 10 0 0 0 2.97 2.692l21.777 12.888c.64.379 1.32.685 2.028.913l19.845 6.391a10 10 0 0 1 6.717 11.594L123 176.5l-1.88 21.155a10 10 0 0 0 .122 2.674l.265 1.46a10 10 0 0 0 9.839 8.211h13.8c1.219 0 2.422.284 3.512.829l.926.463A6.18 6.18 0 0 1 146.82 223h-11.721a4.11 4.11 0 0 0-3.95 2.979 4 4 0 0 1-.428.985L129.5 229m5.5 13-18.5 2-8.971 1.495A7.324 7.324 0 0 1 99 238.27v-2.594a6.675 6.675 0 0 1 4.395-6.274 6.7 6.7 0 0 1 2.281-.402H129.5m5.5 13-5.5-13" stroke="#4F30AA"/><path d="m102 350.5 5.5 7.5 10.5 8.5 16 6.5 15 3 16.5 1" stroke="#0034D0" stroke-width="3" stroke-linecap="round"/><path d="m254.331 392.088-9.462.709c-3.495.262-4.952 4.6-2.324 6.919a3.96 3.96 0 0 0 3.361.921l16.569-3.156a10 10 0 0 0 4.505-2.12l10.496-8.686a5.58 5.58 0 0 0 2.024-4.302v-1.189a3.272 3.272 0 0 0-5.452-2.441l-10.684 9.539a10 10 0 0 1-3.071 1.874l-3.699 1.423a8 8 0 0 1-2.263.509Z" fill="#950000" stroke="#5E0000" stroke-width="2" stroke-linecap="round"/><path d="m207.582 394.793 3.33 4.541a6.6 6.6 0 0 0 4.237 2.608 6.6 6.6 0 0 0 5.753-1.844l.922-.922a9.13 9.13 0 0 0 2.676-6.46v-.993a10 10 0 0 0-1.381-5.07l-3.155-5.365a10 10 0 0 0-1.063-1.479l-4.065-4.69a6.138 6.138 0 0 0-9.669.5l-.347.495a7.3 7.3 0 0 0-1.32 4.188v3.98c0 1.461.32 2.904.938 4.228l2.146 4.599c.277.592.611 1.157.998 1.684Z" fill="#0034D0" stroke="#0D0081" stroke-width="2" stroke-linecap="round"/><path d="m194.067 411.034 3.561 1.78a3.21 3.21 0 0 0 2.768.051c2.01-.913 2.522-3.535 1.004-5.137l-4.961-5.237a8.4 8.4 0 0 1-1.514-2.229L189 387.5l-3.5 4v6.615c0 2.195.723 4.33 2.056 6.074l3.04 3.975a10 10 0 0 0 3.471 2.87" fill="#0034D0"/><path d="M185.5 391.5v6.615c0 2.195.723 4.33 2.056 6.074l3.04 3.975a10 10 0 0 0 3.471 2.87l3.561 1.78a3.21 3.21 0 0 0 2.768.051v0c2.01-.913 2.522-3.535 1.004-5.137l-4.961-5.237a8.4 8.4 0 0 1-1.514-2.229L189 387.5m-3.5 4-4.481-3.792a10 10 0 0 1-2.929-4.191l-3.979-10.85a10 10 0 0 1-.611-3.443v-7.696a10 10 0 0 1 1.679-5.547l3.672-5.508a10 10 0 0 1 4.381-3.644l5.017-2.15a10 10 0 0 1 5.697-.653l7.554 1.349m-16 46.125 3.5-4m16-41.5-3.5-.625m0 0-7.27-33.322a10 10 0 0 1-.23-2.131V300m-5 87.5-4.818-13.139a10 10 0 0 1-.603-3.842l.299-7.468c.08-1.989.751-3.908 1.928-5.514l3.694-5.037" stroke="#0D0081" stroke-width="2" stroke-linecap="round"/><path d="m192.416 371.517 2.147 2.386a4.12 4.12 0 0 0 3.568 1.331l.859-.108a2.225 2.225 0 0 0 1.939-2.408l-.156-1.71a7.1 7.1 0 0 0-2.631-4.895l-2.145-1.716a4.8 4.8 0 0 0-1.082-.648l-1.24-.531a2.69 2.69 0 0 0-3.589 3.393l.946 2.603a7 7 0 0 0 1.384 2.303Zm7.058-8.362 1.263.561a3.505 3.505 0 0 0 4.915-2.885l.175-1.925a4.75 4.75 0 0 0-3.029-4.868l-4.254-1.637a3.344 3.344 0 0 0-4.544 3.121v.273c0 .783.248 1.546.709 2.179l2.342 3.222a6 6 0 0 0 2.423 1.959Zm9.126-2.855 1.458 3.159a3.512 3.512 0 0 0 6.691-1.202l.126-1.638a5.3 5.3 0 0 0-.681-3.029l-.461-.808a4.03 4.03 0 0 0-2.121-1.787l-.1-.036a3.93 3.93 0 0 0-4.912 5.341Z" fill="#0034D0" stroke="#0D0081" stroke-width="2" stroke-linecap="round"/><path d="m265.5 397.5-19 3.5 6 3 15.5.5 10-6 1-4.5-3-5.5z" fill="#B1B400" stroke="#8B8D00" stroke-width="2" stroke-linecap="round"/><path d="m235.5 394 9 7.5 8.5 3h14m6-24.5 7 12v6l-9.5 6.5H267m0 0-2-9-5-5.5" stroke="#131313" stroke-width="2" stroke-linecap="round"/><path d="m308.617 397.473-8.698-4.745a1.933 1.933 0 0 1 .686-3.616l11.878-1.485a9.3 9.3 0 0 0 1.982-.472l11.376-4.062a4.4 4.4 0 0 0 2.447-2.169l.599-1.198a2.22 2.22 0 0 1 3.777-.313l1.541 2.119a7.28 7.28 0 0 1-1.679 10.22l-7.298 5.17a10 10 0 0 1-4.949 1.805l-2.48.206a10 10 0 0 1-1.598.006l-3.562-.274a10 10 0 0 1-4.022-1.192Z" fill="#950000" stroke="#5E0000" stroke-width="2" stroke-linecap="round"/><path d="m330.5 400-16.5-1 20-8.5 2-5 4.5 7.5-1.5 3.5-3.5 1.5z" fill="#B1B400"/><path d="m335.5 398-5 2-16.5-1 20-8.5m1.5 7.5-1.5-7.5m1.5 7.5 3.5-1.5 1.5-3.5-4.5-7.5-2 5m0 0-6.5-8.5m-4 12.5-10-7.5" stroke="#131313" stroke-width="2" stroke-linecap="round"/><path d="m320.5 355 .5 2.5-2-1.5-1-3z" stroke="#0034D0" stroke-width="2" stroke-linecap="round"/><path d="m348.5 343.5-6.712 3.776a5.6 5.6 0 0 0-2.048 1.991l-1.607 2.679a1.57 1.57 0 0 0 .236 1.923v0c.392.392.959.549 1.496.415L343 353.5l1.319-.495a1.698 1.698 0 0 1 2.276 1.83l-.031.218c-.041.287-.19.548-.416.729v0c-.793.634-.423 1.91.586 2.022l1.231.137c.348.038.699-.035 1.002-.208L352 356" stroke="#131313" stroke-width="2" stroke-linecap="round"/><path d="m317.66 338.757.177 1.955a2.272 2.272 0 0 0 4.348.689l1.912-4.462a2.466 2.466 0 0 0-2.268-3.439h-.318c-.948 0-1.838.458-2.39 1.23l-.596.834a4.76 4.76 0 0 0-.865 3.193Z" fill="#0034D0" stroke="#0D0081" stroke-width="2" stroke-linecap="round"/><path d="M323 341.861v1.072a2.376 2.376 0 0 0 4.502 1.063l.198-.395c.197-.395.3-.831.3-1.273v-3.407a3.04 3.04 0 0 0-.511-1.687l-.697-1.046a1.618 1.618 0 0 0-2.937.607l-.79 4.35a4 4 0 0 0-.065.716Zm-5.647 2.804-.318.572a2.617 2.617 0 0 1-4.77-.443l-.873-2.619a3 3 0 0 1 .165-2.288 2.98 2.98 0 0 1 3.025-1.627 2.97 2.97 0 0 1 2.473 2.091l.562 1.872c.245.817.15 1.697-.264 2.442Z" fill="#0034D0" stroke="#0D0081" stroke-width="2" stroke-linecap="round"/><path d="m311 333 6.5-6.5" stroke="#0D0081" stroke-width="2" stroke-linecap="round"/><path d="m218.5 258.5 10 5.5-7-10.5-7-11.5 1-17 6-15 13-30.5 5-11 8-13.5 16.5-26 13.5-19.5L293 93l13.5-7h11l7 1 7.5 2 5 2-1.5-4-10.5-3.5-17.5-2.5-9.5 3.5L280.5 98 260 126.5l-16.5 26-14 27L217 208l-7.5 16v20z" fill="#0034D0" stroke="#0D0081" stroke-width="2" stroke-linecap="round"/><path d="m243.5 325.5 12.585 23.596c1.648 3.091 5.881 3.572 8.182.931l7.503-8.615a5 5 0 0 0 1.23-3.284v-4.772c0-.566-.096-1.129-.285-1.664L270 324l-3.314-13.729a5 5 0 0 0-.602-1.447l-2.842-4.619a5 5 0 0 1-.742-2.62v-21.351c0-.487-.071-.971-.211-1.437l-.22-.734a5 5 0 0 0-4.789-3.563h-3.895a5 5 0 0 1-2.573-.713l-5.47-3.282a5 5 0 0 0-1.812-.654l-4.779-.735a3.9 3.9 0 0 1-1.403-.507c-2.773-1.664-6.244.604-5.832 3.812L233 284l1.437 21.551c.042.627.201 1.24.47 1.808z" fill="#950000" stroke="#5E0000" stroke-width="2" stroke-linecap="round"/><path d="M89.585 354.5h4.065a4.832 4.832 0 0 0 .15-9.662l-7.143-.224a10 10 0 0 1-6.377-2.562l-14.478-13.031a10 10 0 0 1-3.242-6.264l-1.36-11.56a10 10 0 0 1 .175-3.364l3.904-17.351a10 10 0 0 1 .633-1.901l10.136-22.575c.3-.669.526-1.368.674-2.086l3.55-17.308a10 10 0 0 0 .201-2.247l-.453-19.019a10 10 0 0 0-.182-1.677l-3.425-17.554a10 10 0 0 0-1.66-3.872l-8.642-12.178a10 10 0 0 0-2.723-2.608l-14.154-9.159a10 10 0 0 0-2.645-1.208l-11.966-3.474a10 10 0 0 0-4.308-.28l-8.983 1.382a10 10 0 0 0-3.441 1.201l-8.766 5.009a10 10 0 0 0-4.7 6.106l-2.638 9.888a10 10 0 0 0-.33 2.193l-.394 10.249a10 10 0 0 0 .399 3.206l1.239 4.213a10 10 0 0 0 2.904 4.611L8.5 224l4.038 3.029a7.36 7.36 0 0 0 9.617-.684l.095-.095a7.68 7.68 0 0 0 2.25-5.432v-.053a7.8 7.8 0 0 0-.759-3.358l-3.27-6.867a10 10 0 0 1-.971-4.299v-8.522A10 10 0 0 1 23.143 190l3.548-2.922a10 10 0 0 1 2.9-1.664l5.017-1.848a10 10 0 0 1 5.882-.318l2.323.58a10 10 0 0 1 4.646 2.631l5.787 5.787a10 10 0 0 1 1.332 1.65l8.578 13.295c.56.868.981 1.816 1.25 2.812l4.085 15.114a10 10 0 0 1 .273 3.819l-2.138 17.527a10 10 0 0 1-.464 2.026L60 266.5l-9 23-4.92 16.995a10 10 0 0 0-.31 4.074l1.114 8.544q.116.887.387 1.739l2.458 7.726a10 10 0 0 0 2.604 4.182l9.48 9.101c.786.754 1.69 1.375 2.676 1.838l21.124 9.915a9.3 9.3 0 0 0 3.972.886Z" fill="#001DC1" stroke="#003D9E" stroke-width="2" stroke-linecap="round"/><path d="m106 142 30.5 9.5 13-25-2.5-4-19-6-17.5-2-16.5-2-15.5-3.5-7.5-2.5-4 2.5v3.5L85.5 129z" fill="#001DC1" stroke="#0D0081" stroke-width="2" stroke-linecap="round"/><path d="m135.131 122.583 4.636 1.655a4.65 4.65 0 0 1 3.077 4.68l-.78 12.088a10 10 0 0 1-.323 1.956l-2.664 9.896a8.3 8.3 0 0 1-2.146 3.711l-1.085 1.085a4.6 4.6 0 0 1-3.25 1.346h-.344a4.25 4.25 0 0 1-4.252-4.252c0-4.224-5.493-5.864-7.808-2.33l-.379.579a4.43 4.43 0 0 1-3.708 2.003h-.176a3.94 3.94 0 0 1-2.526-.915 3.94 3.94 0 0 1-1.302-3.988l.399-1.597 1.655-5.379a5.7 5.7 0 0 1 1.106-2.014l2.036-2.39c2.844-3.339-.145-8.386-4.44-7.498a4.6 4.6 0 0 1-2.644-.234l-4.533-1.813a2.672 2.672 0 0 1 .468-5.102l9.381-1.876a10 10 0 0 1 1.961-.194h14.278c1.146 0 2.284.197 3.363.583Z" fill="#C6B900" stroke="#9DAB00" stroke-width="2" stroke-linecap="round"/><path d="m226 285 8.5 20.5V292l-4.5-14-4-1zm36.5 17 3.5 5.5 2.5-16V282l1.5-6.5-8 .5zm11 1.5 1 14.5 6 1.5 1.5-7-4.5-20.5-1.5-5.5h-2.5l-1 5z" fill="#B1B400"/><path d="m226 285 8.5 20.5V292l-4.5-14-4-1zm36.5 17 3.5 5.5 2.5-16V282l1.5-6.5-8 .5zm11 1.5 1 14.5 6 1.5 1.5-7-4.5-20.5-1.5-5.5h-2.5l-1 5z" stroke="#131313" stroke-width="2" stroke-linecap="round"/><path d="m208 50-12.509 3.032c-1.458.354-2.61-1.242-1.814-2.515a1.67 1.67 0 0 1 .903-.705l17.192-5.576a10 10 0 0 1 1.484-.359l17.2-2.789a2.5 2.5 0 0 1 1.074.063l13.605 3.887c.546.157.433.962-.135.962h-6z" fill="#0034D0" stroke="#0D0081" stroke-width="2" stroke-linecap="round"/><path fill-rule="evenodd" clip-rule="evenodd" d="m262.845 165.84 2.144 3.811a4.8 4.8 0 0 0 3.011 2.297l2.967.371c.687.086 1.381.1 2.071.043l3.488-.291a6.68 6.68 0 0 0 5.781-4.544l.68-2.039c.34-1.02.513-2.088.513-3.163v-5.877l-1-8-1.253-7.517a10 10 0 0 0-.919-2.828l-.484-.967a9.3 9.3 0 0 0-2.277-2.916l-.151-.13a8.67 8.67 0 0 0-4.414-1.999l-.074-.01a8.03 8.03 0 0 0-8.391 4.511l-1.627 3.434a10 10 0 0 0-.959 4.048l-.387 16.631a10 10 0 0 0 1.281 5.135m-21.401 2.609-.776-27.952a7.96 7.96 0 0 1 7.077-8.132l.626-.069a10 10 0 0 1 5.893 1.16l.349.19a10 10 0 0 1 3.786 3.634l.176.293a10 10 0 0 1 1.425 5.145v9.202a3.24 3.24 0 0 1-2.452 3.141c-2.442.611-3.284 3.651-1.505 5.431l5.126 5.125a3.35 3.35 0 0 1 .961 2l.032.292a3.058 3.058 0 0 1-5.201 2.5l-2.461-2.461-3.276-4.212a10 10 0 0 1-.426-.591L248 158.948c-2-3-2 3.5-2 3.5v5.5a2.5 2.5 0 0 1-2.5 2.5 2.057 2.057 0 0 1-2.056-1.999m-23.861-26.337.358 24.333a3.233 3.233 0 0 0 3.96 3.103 3.27 3.27 0 0 0 2.524-3.266c-.088-3.901-.142-10.484.575-8.334.885 2.655 8.035 9.226 9.669 10.702q.333.3.746.476l.116.05a2.679 2.679 0 0 0 3.046-4.254l-4.397-4.885a4.842 4.842 0 0 1 .843-7.22 4.84 4.84 0 0 0 2.081-3.771l.264-6.051a7.73 7.73 0 0 0-4.263-7.245l-.494-.246a10 10 0 0 0-4.472-1.056h-3.003a7.554 7.554 0 0 0-7.553 7.664m-7.42 30.716 3.366-1.795a2.702 2.702 0 0 0-1.271-5.085h-1.441c-.542 0-1.081.076-1.603.225l-4.762 1.36a5.64 5.64 0 0 1-2.917.049l-.517-.129a4.997 4.997 0 0 1 .843-9.828l7.149-.53a2.683 2.683 0 0 0 .453-5.281l-1.09-.273a4 4 0 0 0-.757-.11l-4.397-.2a5.394 5.394 0 0 1 .245-10.783h7.946a1.947 1.947 0 0 0 1.032-3.598l-.848-.531a2.6 2.6 0 0 0-1.294-.393l-9.748-.304a10 10 0 0 0-8.633 4.448l-.11.165a10 10 0 0 0-1.238 2.606l-1.129 3.67a10 10 0 0 0-.442 2.941v13.69c0 3.038 1.381 5.911 3.753 7.809l.831.665a10 10 0 0 0 6.647 2.183l7.452-.298a5.8 5.8 0 0 0 2.48-.673m76.242-5.88-.783-29.002a4.38 4.38 0 0 1 4.378-4.498h5.269c.818 0 1.632.1 2.425.299l2.056.513a7 7 0 0 1 1.442.534l.125.063a6.65 6.65 0 0 1 3.683 5.959v9.016c0 .739-.119 1.474-.353 2.175l-.673 2.02a2.84 2.84 0 0 1-1.914 1.833 2.84 2.84 0 0 0-2.06 2.73v.93c0 .924.315 1.821.892 2.543l3.108 3.885 1.509 1.509a2.108 2.108 0 0 1-2.321 3.429l-1.511-.648a4.5 4.5 0 0 1-1.227-.779l-1.567-1.392c-1.55-1.379-2.618-3.208-3.173-5.206-.925-3.337-2.376-7.591-2.71-2.913a268 268 0 0 0-.418 6.922c-.067 1.489-1.159 2.758-2.629 3.003a3.048 3.048 0 0 1-3.548-2.925m-15.994-1.771.119.095a3.462 3.462 0 0 0 5.129-.921l.199-.333c.42-.7.642-1.501.642-2.318v-11.35c0-.6-.054-1.199-.161-1.789l-.679-3.73a10 10 0 0 0-.475-1.723l-.791-2.109a7 7 0 0 0-1.095-1.927l-.98-1.225a1.73 1.73 0 0 0-2.576-.142l-.507.507a2.9 2.9 0 0 0-.835 1.772l-.832 8.742a10 10 0 0 0-.033 1.447l.403 8.063c.041.805.178 1.602.41 2.374l.816 2.721a3.74 3.74 0 0 0 1.246 1.846m-45.791-16.463-1.125-3.658a4.93 4.93 0 0 1 .096-3.183l.402-1.073a2.75 2.75 0 0 1 3.113-1.731l.923.185a5.7 5.7 0 0 1 1.82.703l.343.206a4.52 4.52 0 0 1 2.163 4.444l-.186 1.493a3.96 3.96 0 0 1-2.37 3.148l-2.091.896a2.29 2.29 0 0 1-3.088-1.43m23.42 1.517-.237-.197a4.05 4.05 0 0 1-1.444-2.777l-.204-2.448a4.03 4.03 0 0 1 1.166-3.182l.395-.395a2.68 2.68 0 0 1 3.497-.249l.687.515a5.25 5.25 0 0 1 2.1 4.2v1.203c0 .688-.166 1.366-.484 1.975l-.151.289a3.485 3.485 0 0 1-5.325 1.066m44.763-1.175c-.327-.783-.726-1.7-1.098-2.538a5.74 5.74 0 0 1-.422-3.268l.493-2.956a2.68 2.68 0 0 1 3.084-2.203l.962.161a5.6 5.6 0 0 1 2.172.859l.141.094a5.17 5.17 0 0 1 2.252 5.035l-.194 1.355a8.4 8.4 0 0 1-.804 2.575l-.491.983a3.76 3.76 0 0 1-1.109 1.328l-.472.355a2.4 2.4 0 0 1-1.824.444c-1.15-.191-2.24-1.149-2.69-2.224" fill="#424242"/><path d="m264.989 169.651-.871.491zm-2.144-3.811.872-.49zm5.155 6.108-.243.97.059.015.06.007zm2.967.371-.124.992zm2.071.043-.083-.997zm3.488-.291.083.996zm2.759-.857.496.868zm3.022-3.687.949.317zm.68-2.039-.949-.317zm.513-9.04h1v-.062l-.008-.062zm-1-8 .992-.124-.002-.02-.004-.02zm-1.253-7.517-.986.165zm-.919-2.828.894-.447zm-.484-.967-.894.448zm-2.277-2.916.651-.76zm-.151-.13-.651.76zm-4.414-1.999-.141.99zm-.074-.01.142-.99zm-1.862-.048.091.996zm-6.529 4.559-.903-.428zm-1.627 3.434-.903-.428zm-.959 4.048.999.024zm-.387 16.631-1-.024zm-20.896-20.208-1 .028zm.776 27.952-.999.028zm4.839-35.78.295.955zm1.462-.304-.11-.994zm.626-.069.11.994zm5.893 1.16-.479.878zm.349.19.479-.878zm3.786 3.634-.857.514zm.176.293.857-.515zm-2.532 22.919.708-.708zm5.126 5.125.707-.707zm.961 2-.994.11zm.032.292.994-.111zm-2.701 3.377.11.994zm-2.5-.877-.707.707zm-2.461-2.461-.789.614.038.049.044.044zm-3.276-4.212-.789.614zm-.426-.591-.832.555zM248 158.948l.832-.555zm-30.059 7.497 1-.015zm-.358-24.333-1 .015zm4.318 27.436-.225-.975zm2.524-3.266-1 .023zm.575-8.334.949-.316zm9.669 10.702.67-.741zm.746.476.394-.919zm.116.05-.394.919zm3.67-1.881-.977-.217zm-.624-2.373.743-.669zm-4.397-4.885-.743.669zm.843-7.22.569.822zm2.081-3.771-.999-.044zm.264-6.051.999.043zm-1.853-5.363.759-.65zm-2.41-1.882.447-.894zm-.494-.246.448-.895zm-9.697-.722.295.956zm-9.385 36.251.47.882zm-3.366 1.795.471.882zm4.146-5.937-.76.651zm-5.095-.718.275.961zm-4.762 1.36-.275-.961zm-2.917.049-.242.97zm-.517-.129.243-.971zm-3.775-5.14.998.059zm4.618-4.688.074.997zm7.149-.53-.073-.997zm2.423-2.094.976.217zm-1.97-3.187.243-.97zm-1.09-.273-.243.97zm-.757-.11-.045.999zm-4.397-.2.045-.999zm-5.054-6.398.982.187zm14.326-4.712-.555-.832zm-.049-3.271-.53.848zm-.848-.531.53-.848zm-1.294-.393.031-.999zm-9.748-.304.031-1zm-8.743 4.613-.832-.555zm-1.238 2.606-.955-.294zm-1.129 3.67-.956-.294zm3.311 24.44-.625.78zm.831.665-.624.78zm6.647 2.183-.04-.999zm7.452-.298.04.999zm77.939-35.555-1 .027zm.783 29.002-.999.028zm11.289-33.201-.242.97zm2.056.513.242-.97zm1.442.534.447-.894zm.125.063-.447.894zm3.144 3.334.919-.394zm.186 13.816-.949-.316zm-.673 2.02.948.316zm-1.914 1.833.274.961zm-1.168 6.203.781-.624zm3.108 3.885-.781.625.035.043.039.039zm1.509 1.509-.707.707zm0 2.982-.707-.707zm-2.321.447-.394.919zm-1.511-.648.394-.919zm-1.227-.779.664-.747zm-1.567-1.392-.664.747zm-3.173-5.206.964-.268zm-2.71-2.913.997.071zm-.418 6.922.999.045zm-2.629 3.003.165.986zm-19.423-4.601-.625.781zm-.119-.095.625-.781zm3.375.676.316.949zm1.873-1.502.857.514zm.199-.333.857.515zm.481-15.457.984-.179zm-.679-3.73.984-.179zm-.475-1.723.936-.351zm-.791-2.109.936-.352zm-1.095-1.927-.781.625zm-.98-1.225.781-.624zm-.804-.561-.316.949zm-1.772.419-.707-.708v.001zm-.507.507.707.707zm-.835 1.772.996.095zm-.832 8.742.995.094zm-.033 1.447-.999.05zm.403 8.063-.998.05zm.41 2.374-.958.288zm.816 2.721.958-.288zm-45.67-18.275.955-.294zm1.125 3.658.956-.294zm-1.029-6.841.936.351zm.402-1.073-.936-.352zm1.907-1.702.243.97zm1.206-.029.196-.98zm.923.185-.196.98zm1.82.703-.515.858zm.343.206-.514.858zm1.874 2.201.929-.371zm.289 2.243-.992-.124zm-.186 1.493.992.124zm-1.13 2.309-.707-.707zm-1.24.839-.394-.919zm-2.091.896.394.92zm-1.456.117.243-.97zm21.551-.227.64-.768zm.237.197-.641.768zm-1.681-2.974.997-.083zm-.204-2.448.997-.083zm1.166-3.182.707.708zm.395-.395-.707-.707zm3.497-.249-.6.8zm.687.515.6-.8zm1.05 1.05-.8.6zm.566 6.328-.887-.462zm-.151.289-.886-.463zm-2.051 1.715.299.955zm40.391-4.362.914-.405zm1.098 2.538-.922.386zm-1.52-5.806-.986-.165zm.493-2.956-.987-.164zm1.445-1.956.447.894zm1.639-.247.164-.986zm.962.161.164-.987zm2.172.859-.555.832zm.141.094.555-.832zm2.233 3.454-.986.164zm.019 1.581-.99-.141zm-.194 1.355.99.142zm-.804 2.575-.894-.447zm-.491.983.894.447zm-3.405 2.127.165-.986zm-71.571-3.498.993-.117zm-.614-5.215-.993.116zm8.528 4.709.894.447zm-.258.515.895.447zm-1.687 1.823.514.857zm-1.009.605-.515-.858zm17.618-3.771-.996-.09-.004.045v.045zm.284-3.122-.996-.091zm5.724-1.984-.726.688zm.485.512.726-.687zm1.197 3.766.99.141zm-.19 1.328.97.243.013-.05.007-.052zm-.421 1.683-.97-.242zm15.358 14.154-1 .017zm-.401-23.244-1 .017zm4.302-1.419-.814.581zm1.126 1.576-.814.581zm.801 1.633-.958.288zm.946 3.152.957-.287zm.38 1.968-.996.091zm.409 4.497h1v-.045l-.004-.045zm0 11 .994.111.006-.056v-.055zm-.132 1.184-.993-.11zm15.662-14.349.984-.174zm-.865-4.897-.984.173zm.022-1.871.98.196zm.077-.387-.981-.196zm8.954.279-.994.111zm.138 1.242.994-.11zm-.173 2.567.97.242zm-.512 2.047-.97-.243zm-.522 1.299-.868-.497zm-.499.873-.868-.496zm-3.457 1.782.099-.995zm-45.871-11.323.232.972zm1.318 10.917.152.989zm-19.099-10.206-.814.581zm-6.04-1.991.316.949zm-1.168 9.916-.869.496zm74.07-10.237-.586.81zm-27.831-1.641.142.99zm-4.711 32.009-2.144-3.811-1.743.98 2.144 3.812zm2.382 1.817a3.8 3.8 0 0 1-2.382-1.817l-1.743.981a5.8 5.8 0 0 0 3.639 2.776zm2.848.349-2.967-.371-.248 1.984 2.967.371zm1.864.038a9 9 0 0 1-1.864-.038l-.248 1.984c.755.095 1.519.11 2.278.047zm3.488-.291-3.488.291.166 1.993 3.488-.291zm2.345-.728c-.719.411-1.52.66-2.345.728l.166 1.993a7.7 7.7 0 0 0 3.172-.985zm2.57-3.135a5.68 5.68 0 0 1-2.57 3.135l.993 1.736a7.68 7.68 0 0 0 3.475-4.238zm.68-2.04-.68 2.04 1.898.633.68-2.04zm.462-2.846a9 9 0 0 1-.462 2.846l1.898.633c.373-1.122.564-2.296.564-3.479zm0-5.877v5.877h2v-5.877zm-.992-7.876 1 8 1.984-.248-1-8zm-1.247-7.476 1.253 7.516 1.972-.328-1.252-7.517zm-.828-2.546c.401.803.68 1.661.828 2.546l1.973-.329a11 11 0 0 0-1.012-3.111zm-.483-.966.483.966 1.789-.894-.483-.967zm-2.034-2.605a8.4 8.4 0 0 1 2.034 2.605l1.789-.895a10.4 10.4 0 0 0-2.521-3.229zm-.151-.129.151.129 1.302-1.519-.151-.129zm-3.904-1.769a7.66 7.66 0 0 1 3.904 1.769l1.302-1.519a9.67 9.67 0 0 0-4.924-2.23zm-.074-.01.074.01.282-1.98-.073-.01zm-1.63-.042a7 7 0 0 1 1.63.042l.283-1.98a9 9 0 0 0-2.094-.054zm-5.716 3.991a7.03 7.03 0 0 1 5.716-3.991l-.181-1.992a9.03 9.03 0 0 0-7.342 5.127zm-1.627 3.434 1.627-3.434-1.807-.856-1.627 3.434zm-.864 3.644a9 9 0 0 1 .864-3.644l-1.807-.856a11 11 0 0 0-1.056 4.453zm-.386 16.63.386-16.63-1.999-.047-.387 16.63zm1.153 4.622a9 9 0 0 1-1.153-4.622l-2-.047a11 11 0 0 0 1.41 5.649zm-24.049-24.825.777 27.952 1.999-.056-.776-27.952zm6.321-8.812a8.96 8.96 0 0 0-6.321 8.812l2-.056a6.96 6.96 0 0 1 4.91-6.845zm1.646-.342a9 9 0 0 0-1.646.342l.589 1.911a7 7 0 0 1 1.278-.265zm.626-.069-.626.069.221 1.988.625-.069zm6.482 1.276a11 11 0 0 0-6.482-1.276l.22 1.988a9 9 0 0 1 5.304 1.044zm.349.19-.349-.19-.958 1.756.349.19zm4.165 3.997a11 11 0 0 0-4.165-3.997l-.958 1.756a9 9 0 0 1 3.408 3.27zm.175.293-.175-.293-1.715 1.029.175.293zm1.568 5.66a11 11 0 0 0-1.568-5.66l-1.715 1.029c.84 1.399 1.283 3 1.283 4.631zm0 9.202v-9.202h-2v9.202zm-3.21 4.111a4.236 4.236 0 0 0 3.21-4.111h-2a2.24 2.24 0 0 1-1.695 2.171zm-1.039 3.753c-1.23-1.229-.648-3.331 1.039-3.753l-.485-1.94c-3.196.799-4.298 4.778-1.969 7.108zm5.125 5.126-5.125-5.126-1.415 1.415 5.125 5.125zm1.248 2.596a4.35 4.35 0 0 0-1.248-2.596l-1.415 1.414c.378.377.616.872.675 1.403zm.032.292-.032-.292-1.988.221.032.292zm-3.585 4.482a4.06 4.06 0 0 0 3.585-4.482l-1.988.221a2.06 2.06 0 0 1-1.818 2.273zm-3.317-1.164a4.06 4.06 0 0 0 3.317 1.164l-.221-1.988a2.06 2.06 0 0 1-1.682-.59zm-2.461-2.461 2.461 2.461 1.414-1.414-2.461-2.461zm-3.358-4.305 3.276 4.212 1.578-1.228-3.275-4.211zm-.469-.65q.223.334.469.65l1.579-1.227a9 9 0 0 1-.384-.533zm-2.798-4.197 2.798 4.197 1.664-1.11-2.798-4.197zM246 162.448h1v-.062l.004-.189c.003-.163.011-.394.026-.662.03-.545.089-1.209.201-1.766q.086-.422.18-.647c.075-.179.097-.134-.013-.061a.6.6 0 0 1-.325.096.5.5 0 0 1-.229-.052c-.012-.006.102.065.324.398l1.664-1.11c-.278-.417-.602-.799-.996-1.024a1.53 1.53 0 0 0-.763-.212c-.301 0-.568.096-.784.24-.391.261-.603.666-.724.956a5.5 5.5 0 0 0-.296 1.024 15 15 0 0 0-.236 2.047 21 21 0 0 0-.032.941l-.001.06v.023zm1 5.5v-5.5h-2v5.5zm-3.5 3.5a3.5 3.5 0 0 0 3.5-3.5h-2a1.5 1.5 0 0 1-1.5 1.5zm-3.055-2.971a3.056 3.056 0 0 0 3.055 2.971v-2c-.572 0-1.04-.455-1.056-1.027zm-21.504-2.047-.358-24.332-2 .029.358 24.333zm2.735 2.143a2.233 2.233 0 0 1-2.735-2.143l-2 .03a4.233 4.233 0 0 0 5.185 4.062zm1.749-2.268a2.27 2.27 0 0 1-1.749 2.268l.45 1.949a4.27 4.27 0 0 0 3.299-4.262zm2.524-8.673a3 3 0 0 0-.204-.479 1.4 1.4 0 0 0-.2-.275 1.1 1.1 0 0 0-.517-.314 1.06 1.06 0 0 0-.83.118 1.15 1.15 0 0 0-.372.371c-.114.182-.17.377-.2.498-.125.496-.183 1.348-.215 2.26-.066 1.896-.03 4.543.014 6.494l2-.045c-.044-1.951-.079-4.546-.015-6.379.033-.953.091-1.588.155-1.843.017-.067.013-.014-.045.078a.9.9 0 0 1-.283.275.94.94 0 0 1-.733.103.9.9 0 0 1-.413-.243.5.5 0 0 1-.087-.115c-.007-.012.011.019.047.128zm9.39 10.277a119 119 0 0 1-5.069-4.865c-1.041-1.07-2.045-2.162-2.839-3.141-.821-1.013-1.324-1.797-1.482-2.271l-1.898.632c.285.854 1.007 1.887 1.826 2.898.848 1.046 1.899 2.187 2.96 3.277a121 121 0 0 0 5.161 4.953zm.47.298a1.7 1.7 0 0 1-.47-.298l-1.341 1.483c.308.278.652.494 1.023.653zm.116.05-.116-.05-.788 1.838.116.05zm2.299-1.179a1.678 1.678 0 0 1-2.299 1.179l-.788 1.838a3.68 3.68 0 0 0 5.04-2.583zm-.39-1.487c.363.404.508.958.39 1.487l1.953.434a3.68 3.68 0 0 0-.857-3.259zm-4.397-4.885 4.397 4.885 1.486-1.338-4.397-4.885zm1.017-8.711a5.84 5.84 0 0 0-1.017 8.711l1.486-1.338a3.842 3.842 0 0 1 .669-5.729zm1.651-2.993a3.84 3.84 0 0 1-1.651 2.993l1.138 1.644a5.84 5.84 0 0 0 2.511-4.55zm.263-6.05-.263 6.05 1.998.087.264-6.051zm-1.612-4.669a6.72 6.72 0 0 1 1.612 4.669l1.999.086a8.72 8.72 0 0 0-2.093-6.056zm-2.098-1.638a6.7 6.7 0 0 1 2.098 1.638l1.518-1.301a8.7 8.7 0 0 0-2.722-2.126zm-.494-.247.494.247.894-1.789-.493-.247zm-4.025-.95c1.398 0 2.776.325 4.025.95l.895-1.789a11 11 0 0 0-4.92-1.161zm-3.003 0h3.003v-2h-3.003zm-1.927.29a6.6 6.6 0 0 1 1.927-.29v-2a8.6 8.6 0 0 0-2.516.378zm-4.626 6.36a6.55 6.55 0 0 1 4.626-6.36l-.589-1.912a8.555 8.555 0 0 0-6.037 8.301zm-5.525 28.052-3.365 1.795.941 1.765 3.365-1.795zm.491-2.608a1.7 1.7 0 0 1-.491 2.608l.941 1.765a3.7 3.7 0 0 0 1.069-5.674zm-1.291-.594a1.7 1.7 0 0 1 1.291.594l1.519-1.301a3.7 3.7 0 0 0-2.81-1.293zm-1.441 0h1.441v-2h-1.441zm-1.328.186a5 5 0 0 1 1.328-.186v-2c-.635 0-1.267.089-1.877.263zm-4.763 1.361 4.763-1.361-.549-1.923-4.763 1.361zm-3.433.057a6.64 6.64 0 0 0 3.433-.057l-.549-1.923a4.65 4.65 0 0 1-2.399.04zm-.517-.129.517.129.485-1.94-.517-.13zm-4.531-6.168a5.995 5.995 0 0 0 4.531 6.168l.485-1.941a3.995 3.995 0 0 1-3.02-4.11zm5.542-5.627a5.995 5.995 0 0 0-5.542 5.627l1.996.117a3.996 3.996 0 0 1 3.694-3.75zm7.15-.53-7.15.53.148 1.994 7.149-.529zm1.52-1.314a1.69 1.69 0 0 1-1.52 1.314l.147 1.995a3.69 3.69 0 0 0 3.325-2.875zm-1.236-2a1.684 1.684 0 0 1 1.236 2l1.952.434a3.685 3.685 0 0 0-2.703-4.374zm-1.091-.273 1.091.273.485-1.94-1.091-.273zm-.559-.081q.283.013.559.081l.485-1.94a5 5 0 0 0-.953-.139zm-4.398-.2 4.398.2.091-1.998-4.398-.2zm-5.991-7.584c-.728 3.824 2.102 7.407 5.991 7.584l.091-1.998a4.394 4.394 0 0 1-4.117-5.212zm6.282-5.198a6.396 6.396 0 0 0-6.282 5.198l1.965.374a4.394 4.394 0 0 1 4.317-3.572zm7.946 0h-7.946v2h7.946zm.526-.159a.95.95 0 0 1-.526.159v2c.582 0 1.151-.172 1.635-.495zm-.024-1.591a.947.947 0 0 1 .024 1.591l1.109 1.664c1.781-1.187 1.742-3.817-.073-4.951zm-.848-.531.848.531 1.06-1.696-.848-.531zm-.795-.241c.282.009.556.092.795.241l1.06-1.696a3.6 3.6 0 0 0-1.793-.544zm-9.748-.305 9.748.305.062-1.999-9.748-.305zm-7.77 4.003a9 9 0 0 1 7.77-4.003l.062-1.999a11 11 0 0 0-9.496 4.893zm-.11.166.11-.166-1.664-1.109-.11.165zm-1.114 2.345a9 9 0 0 1 1.114-2.345l-1.664-1.11a11 11 0 0 0-1.361 2.867zm-1.129 3.67 1.129-3.67-1.911-.588-1.13 3.67zm-.398 2.647c0-.897.134-1.79.398-2.647l-1.912-.588a11 11 0 0 0-.486 3.235zm0 13.69v-13.69h-2v13.69zm3.378 7.028a9 9 0 0 1-3.378-7.028h-2a11 11 0 0 0 4.128 8.589zm.831.665-.831-.665-1.25 1.561.832.665zm5.982 1.965a9 9 0 0 1-5.982-1.965l-1.249 1.561a11 11 0 0 0 7.311 2.402zm7.452-.298-7.452.298.08 1.998 7.452-.298zm2.05-.557a4.8 4.8 0 0 1-2.05.557l.08 1.998a6.8 6.8 0 0 0 2.911-.79zm74.929-33.972.784 29.003 1.999-.055-.784-29.002zm5.378-5.525a5.38 5.38 0 0 0-5.378 5.525l1.999-.054a3.38 3.38 0 0 1 3.379-3.471zm5.269 0H290v2h5.269zm2.668.329a11 11 0 0 0-2.668-.329v2c.736 0 1.469.09 2.183.269zm2.055.513-2.055-.513-.485 1.94 2.055.514zm1.647.61a8 8 0 0 0-1.647-.61l-.485 1.941q.644.161 1.238.457zm.125.062-.125-.062-.894 1.788.125.063zm3.616 3.835a7.66 7.66 0 0 0-3.616-3.835l-.894 1.789a5.66 5.66 0 0 1 2.672 2.834zm.62 3.019a7.7 7.7 0 0 0-.62-3.019l-1.838.788c.302.705.458 1.464.458 2.231zm0 4.132v-4.132h-2v4.132zm0 4.884v-4.884h-2v4.884zm-.404 2.491a7.9 7.9 0 0 0 .404-2.491h-2c0 .632-.102 1.259-.302 1.859zm-.674 2.02.674-2.02-1.898-.632-.673 2.02zm-2.588 2.478a3.84 3.84 0 0 0 2.588-2.478l-1.897-.632a1.84 1.84 0 0 1-1.24 1.187zM301 158.59c0-.821.545-1.543 1.334-1.769l-.549-1.923A3.84 3.84 0 0 0 299 158.59zm0 .93v-.93h-2v.93zm.673 1.919a3.07 3.07 0 0 1-.673-1.919h-2c0 1.151.392 2.269 1.111 3.168zm3.108 3.884-3.108-3.884-1.562 1.249 3.108 3.885zm1.435 1.427-1.509-1.509-1.414 1.414 1.509 1.509zm0 4.396a3.11 3.11 0 0 0 0-4.396l-1.414 1.414a1.11 1.11 0 0 1 0 1.568zm-3.422.659a3.11 3.11 0 0 0 3.422-.659l-1.414-1.414a1.11 1.11 0 0 1-1.22.235zm-1.511-.648 1.511.648.788-1.838-1.511-.648zm-1.498-.951c.445.396.951.717 1.498.951l.788-1.838a3.6 3.6 0 0 1-.957-.607zm-1.566-1.392 1.566 1.392 1.329-1.494-1.566-1.393zm-3.472-5.686c.6 2.164 1.763 4.167 3.472 5.686l1.329-1.495c-1.392-1.237-2.365-2.892-2.874-4.726zm-.75-3.109c.041-.561.095-.95.153-1.205.069-.305.111-.272.008-.163a.77.77 0 0 1-.502.226.74.74 0 0 1-.456-.114c-.081-.055-.049-.065.069.138.207.357.459.975.728 1.762.263.769.521 1.64.75 2.465l1.927-.535a47 47 0 0 0-.784-2.576c-.274-.803-.579-1.581-.892-2.12-.142-.245-.361-.578-.678-.791a1.26 1.26 0 0 0-.796-.225 1.23 1.23 0 0 0-.813.389c-.301.316-.434.758-.512 1.103q-.132.59-.196 1.504zm-.416 6.896c.067-1.5.191-3.737.416-6.896l-1.994-.142a265 265 0 0 0-.42 6.948zm-3.463 3.944c1.949-.325 3.376-1.999 3.463-3.944l-1.998-.09c-.046 1.032-.804 1.896-1.794 2.061zm-4.712-3.883a4.048 4.048 0 0 0 4.712 3.883l-.329-1.973a2.048 2.048 0 0 1-2.384-1.965zm-14.251-2.485-.119-.095-1.25 1.562.119.095zm2.315.413a2.46 2.46 0 0 1-2.315-.413l-1.25 1.562a4.46 4.46 0 0 0 4.197.749zm1.331-1.068a2.46 2.46 0 0 1-1.331 1.068l.632 1.898a4.46 4.46 0 0 0 2.414-1.937zm.199-.332-.199.332 1.715 1.029.199-.332zm.5-1.804c0 .635-.173 1.259-.5 1.804l1.715 1.029a5.5 5.5 0 0 0 .785-2.833zm0-4.252v4.252h2v-4.252zm0-7.098v7.098h2v-7.098zm-.145-1.61q.144.798.145 1.61h2c0-.66-.059-1.319-.177-1.968zm-.678-3.731.678 3.731 1.968-.358-.679-3.73zm-.428-1.55q.283.756.428 1.55l1.967-.357a11 11 0 0 0-.523-1.895zm-.791-2.109.791 2.109 1.872-.702-.791-2.11zm-.94-1.653c.399.498.716 1.056.94 1.653l1.872-.703a8 8 0 0 0-1.25-2.2zm-.98-1.225.98 1.225 1.562-1.25-.98-1.224zm-.339-.237a.74.74 0 0 1 .34.237l1.561-1.249a2.7 2.7 0 0 0-1.269-.885zm-.748.177a.73.73 0 0 1 .748-.177l.632-1.897a2.73 2.73 0 0 0-2.795.659zm-.508.507.508-.507-1.415-1.414-.507.507zm-.546 1.16a1.9 1.9 0 0 1 .546-1.16l-1.414-1.414a3.9 3.9 0 0 0-1.123 2.384zm-.833 8.741.833-8.741-1.991-.19-.833 8.742zm-.029 1.303a9 9 0 0 1 .029-1.303l-1.991-.189q-.075.794-.036 1.592zm.403 8.063-.403-8.063-1.998.1.404 8.063zm.368 2.137a9 9 0 0 1-.368-2.137l-1.997.1c.044.886.195 1.762.45 2.612zm.817 2.72-.817-2.72-1.915.575.816 2.72zm.913 1.353a2.74 2.74 0 0 1-.913-1.353l-1.916.575a4.75 4.75 0 0 0 1.579 2.34zm-48.497-19.046 1.126 3.658 1.911-.588-1.126-3.658zm.115-3.828a5.94 5.94 0 0 0-.115 3.828l1.911-.588a3.94 3.94 0 0 1 .077-2.538zm.403-1.074-.403 1.074 1.873.702.403-1.073zm2.601-2.32a3.75 3.75 0 0 0-2.601 2.32l1.873.703a1.75 1.75 0 0 1 1.213-1.083zm1.644-.039a3.7 3.7 0 0 0-1.644.039l.485 1.94c.251-.063.513-.069.767-.018zm.923.184-.923-.184-.392 1.961.923.184zm2.138.827a6.7 6.7 0 0 0-2.138-.827l-.392 1.961c.53.106 1.038.303 1.501.581zm.344.206-.344-.206-1.029 1.715.344.206zm2.288 2.687a5.52 5.52 0 0 0-2.288-2.687l-1.029 1.715a3.53 3.53 0 0 1 1.46 1.714zm.352 2.738a5.5 5.5 0 0 0-.352-2.738l-1.857.742c.221.554.299 1.156.225 1.748zm-.186 1.493.186-1.493-1.984-.248-.187 1.493zm-1.415 2.892a4.96 4.96 0 0 0 1.415-2.892l-1.985-.248a2.96 2.96 0 0 1-.844 1.726zm-1.553 1.052a5 5 0 0 0 1.553-1.052l-1.414-1.414a3 3 0 0 1-.927.627zm-2.091.896 2.091-.896-.788-1.839-2.09.896zm-2.092.167a3.28 3.28 0 0 0 2.092-.167l-.787-1.839a1.3 1.3 0 0 1-.82.066zm-2.345-2.223a3.29 3.29 0 0 0 2.345 2.223l.485-1.94a1.29 1.29 0 0 1-.919-.871zm23.498 1.794.236.197 1.281-1.536-.237-.197zm-1.8-3.462a5.05 5.05 0 0 0 1.8 3.462l1.28-1.536a3.05 3.05 0 0 1-1.087-2.092zm-.204-2.448.204 2.448 1.993-.166-.204-2.448zm1.454-3.972a5.03 5.03 0 0 0-1.454 3.972l1.993-.166a3.02 3.02 0 0 1 .876-2.391zm.396-.395-.396.395 1.415 1.415.395-.396zm2.599-1.077c-.975 0-1.909.387-2.599 1.077l1.414 1.414a1.68 1.68 0 0 1 1.185-.491zm2.205.735a3.68 3.68 0 0 0-2.205-.735v2c.363 0 .715.118 1.005.335zm.687.515-.687-.515-1.2 1.6.687.515zm1.25 1.25a6.2 6.2 0 0 0-1.25-1.25l-1.2 1.6c.322.242.608.528.85.85zm1.25 3.75a6.25 6.25 0 0 0-1.25-3.75l-1.6 1.2c.552.736.85 1.63.85 2.55zm0 1.203v-1.203h-2v1.203zm-.598 2.438a5.3 5.3 0 0 0 .598-2.438h-2c0 .527-.127 1.046-.371 1.513zm-.15.288.15-.288-1.773-.925-.15.288zm-2.639 2.208a4.5 4.5 0 0 0 2.639-2.208l-1.773-.925a2.5 2.5 0 0 1-1.463 1.224zm-4.214-.836a4.49 4.49 0 0 0 4.214.836l-.597-1.909a2.49 2.49 0 0 1-2.336-.463zm43.392-4.075c.37.835.766 1.744 1.09 2.518l1.845-.772c-.331-.792-.734-1.716-1.107-2.557zm-.494-3.839a6.73 6.73 0 0 0 .494 3.839l1.828-.811a4.74 4.74 0 0 1-.35-2.699zm.492-2.955-.492 2.955 1.972.329.493-2.955zm1.984-2.687a3.68 3.68 0 0 0-1.984 2.687l1.973.329a1.68 1.68 0 0 1 .906-1.227zm2.251-.338a3.7 3.7 0 0 0-2.251.338l.895 1.789a1.67 1.67 0 0 1 1.027-.154zm.962.16-.962-.16-.329 1.973.962.16zm2.563 1.014a6.6 6.6 0 0 0-2.563-1.014l-.329 1.973a4.55 4.55 0 0 1 1.782.705zm.141.094-.141-.094-1.11 1.664.142.094zm2.665 4.121a6.17 6.17 0 0 0-2.665-4.121l-1.109 1.664a4.18 4.18 0 0 1 1.801 2.786zm.022 1.888a6.2 6.2 0 0 0-.022-1.888l-1.973.329a4.2 4.2 0 0 1 .015 1.276zm-.194 1.355.194-1.355-1.98-.283-.194 1.355zm-.9 2.88a9.4 9.4 0 0 0 .9-2.88l-1.98-.283a7.4 7.4 0 0 1-.708 2.269zm-.491.983.491-.983-1.788-.894-.492.983zm-1.403 1.681a4.75 4.75 0 0 0 1.403-1.681l-1.789-.894a2.76 2.76 0 0 1-.814.975zm-.472.355.472-.355-1.2-1.6-.472.355zm-2.588.631a3.4 3.4 0 0 0 2.588-.631l-1.2-1.6c-.303.227-.686.32-1.059.258zm-3.448-2.825c.564 1.35 1.915 2.569 3.448 2.825l.329-1.973c-.768-.128-1.597-.823-1.932-1.624zm-66.966-1.777-.614-5.215-1.986.233.614 5.216zm1.611-7.717h.823v-2h-.823zm4.974 4.151v.364h2v-.364zm-.558 2.73-.258.515 1.789.894.257-.515zm-1.566 1.927-1.009.605 1.029 1.715 1.009-.605zm18.124-.996v-1.312h-2v1.312zm-.004-1.221.284-3.123-1.992-.181-.284 3.123zm4.286-4.509.484.512 1.453-1.375-.484-.512zm1.418 3.448-.19 1.329 1.98.282.19-1.328zm-.17 1.228-.421 1.683 1.94.485.421-1.683zm16.907 16.062-.401-23.244-2 .034.401 23.244zm2.087-24.065 1.126 1.576 1.628-1.163-1.126-1.576zm1.783 2.916.946 3.152 1.915-.575-.945-3.152zm1.288 4.923.409 4.497 1.992-.181-.409-4.497zm.405 4.406v5.5h2v-5.5zm0 5.5v5.5h2v-5.5zm.006 5.39-.131 1.184 1.987.221.132-1.184zm17.508-13.229-.864-4.897-1.969.347.864 4.898zm-.847-6.398.078-.387-1.962-.392-.077.386zm7.057-.193.138 1.242 1.988-.221-.138-1.242zm-.011 3.455-.512 2.047 1.941.485.511-2.047zm-.932 3.092-.499.874 1.737.992.499-.873zm-.499.874a2.57 2.57 0 0 1-2.49 1.283l-.199 1.99a4.57 4.57 0 0 0 4.426-2.281zm.919-1.919a4 4 0 0 1-.42 1.045l1.737.993a6 6 0 0 0 .624-1.553zm.661-4.26a6.3 6.3 0 0 1-.149 2.213l1.94.485a8.3 8.3 0 0 0 .197-2.919zm-47.096-.718a3.54 3.54 0 0 1 .934 2.936l1.98.283a5.55 5.55 0 0 0-1.461-4.594zm-2.712-1.176a2.33 2.33 0 0 1 2.228.664l1.453-1.375a4.32 4.32 0 0 0-4.145-1.234zm-1.774 2.05a2.32 2.32 0 0 1 1.774-2.05l-.464-1.945a4.32 4.32 0 0 0-3.302 3.814zm-2.28 4.344a4.593 4.593 0 0 0 5.292 4.54l-.304-1.977a2.594 2.594 0 0 1-2.988-2.563zm-14.816-.416a3.44 3.44 0 0 1-1.308 1.412l1.029 1.715a5.44 5.44 0 0 0 2.068-2.233zm.816-2.881c0 .822-.191 1.631-.558 2.366l1.788.894a7.3 7.3 0 0 0 .77-3.26zm-.773-2.777c.503.704.773 1.548.773 2.413h2a6.15 6.15 0 0 0-1.146-3.575zm-3.378-1.738a4.15 4.15 0 0 1 3.378 1.738l1.627-1.162a6.15 6.15 0 0 0-5.005-2.576zm-1.532.115a2.3 2.3 0 0 1 .709-.115v-2c-.456 0-.909.074-1.341.218zm-1.516 2.387a2.24 2.24 0 0 1 1.516-2.387l-.632-1.897a4.24 4.24 0 0 0-2.87 4.517zm.9 6.084a2.3 2.3 0 0 1-.286-.869l-1.986.234c.067.573.249 1.126.535 1.627zm-1.737.992a4.29 4.29 0 0 0 5.932 1.55l-1.029-1.715a2.29 2.29 0 0 1-3.166-.827zm74.353-9.923a3.45 3.45 0 0 1 1.407 2.415l1.988-.221a5.45 5.45 0 0 0-2.223-3.815zm-2.034-.655c.729 0 1.447.231 2.034.655l1.172-1.621a5.5 5.5 0 0 0-3.206-1.034zm-3.538 2.876c.333-1.664 1.824-2.876 3.538-2.876v-2c-2.651 0-4.977 1.869-5.5 4.484zm-.095 1.888a4.1 4.1 0 0 1 .017-1.501l-1.961-.393a6 6 0 0 0-.025 2.241zm-1.105 5.245a4.57 4.57 0 0 0 4.048 3.755l.199-1.99a2.57 2.57 0 0 1-2.278-2.113zm-15.67 14.065a2.73 2.73 0 0 1-2.711 2.426v2a4.727 4.727 0 0 0 4.698-4.205zm-.622-18.251q.26.868.342 1.771l1.992-.181a11 11 0 0 0-.419-2.165zm-1.603-4.492c.291.407.513.86.657 1.34l1.916-.575a6.6 6.6 0 0 0-.945-1.928zm-2.436-2.137a1.37 1.37 0 0 1 1.31.561l1.628-1.163a3.37 3.37 0 0 0-3.221-1.378zm-1.178 1.382a1.37 1.37 0 0 1 1.178-1.382l-.283-1.98a3.373 3.373 0 0 0-2.895 3.396zm-1.599 23.278a4.727 4.727 0 0 0 4.727 4.646v-2a2.727 2.727 0 0 1-2.727-2.68zm-15.328-14.413a2.59 2.59 0 0 1-2.121 1.934l.304 1.977a4.59 4.59 0 0 0 3.757-3.426z" fill="#424242"/><path fill-rule="evenodd" clip-rule="evenodd" d="m253.345 174.392 2.144 3.811a4.8 4.8 0 0 0 3.011 2.297l2.967.371c.687.086 1.381.1 2.071.043l3.488-.291a6.68 6.68 0 0 0 5.781-4.544l.68-2.04a10 10 0 0 0 .513-3.162V165l-1-8-1.253-7.517a10 10 0 0 0-.919-2.828l-.484-.967a9.35 9.35 0 0 0-2.277-2.917l-.151-.129a8.67 8.67 0 0 0-4.414-1.999l-.074-.01a8.03 8.03 0 0 0-8.391 4.511l-1.627 3.434a10 10 0 0 0-.959 4.048l-.387 16.631a10 10 0 0 0 1.281 5.135m-21.401 2.609-.776-27.952a7.96 7.96 0 0 1 7.077-8.132l.626-.069a10 10 0 0 1 5.893 1.16l.349.19a10 10 0 0 1 3.786 3.634l.176.293a10 10 0 0 1 1.425 5.145v9.202a3.24 3.24 0 0 1-2.452 3.141c-2.442.61-3.284 3.651-1.505 5.43l5.126 5.126a3.35 3.35 0 0 1 .961 2l.032.292a3.058 3.058 0 0 1-5.201 2.5L245 176.5l-3.276-4.212a10 10 0 0 1-.426-.591L238.5 167.5c-2-3-2 3.5-2 3.5v5.5a2.5 2.5 0 0 1-2.5 2.5 2.057 2.057 0 0 1-2.056-1.999m-23.861-26.337.358 24.333a3.233 3.233 0 0 0 3.96 3.103 3.27 3.27 0 0 0 2.524-3.266c-.088-3.902-.142-10.484.575-8.334.885 2.655 8.035 9.226 9.669 10.702q.333.3.746.476l.116.05a2.679 2.679 0 0 0 3.046-4.254l-4.397-4.885a4.842 4.842 0 0 1 .843-7.22 4.84 4.84 0 0 0 2.081-3.771l.264-6.051a7.73 7.73 0 0 0-4.263-7.245l-.494-.246a10 10 0 0 0-4.472-1.056h-3.003a7.554 7.554 0 0 0-7.553 7.664m-7.42 30.716 3.366-1.795a2.702 2.702 0 0 0-1.271-5.085h-1.441c-.542 0-1.081.076-1.603.224l-4.762 1.361a5.64 5.64 0 0 1-2.917.049l-.517-.129a4.997 4.997 0 0 1 .843-9.828l7.149-.53a2.683 2.683 0 0 0 .453-5.281l-1.09-.273a4 4 0 0 0-.757-.11l-4.397-.2a5.394 5.394 0 0 1 .245-10.783h7.946a1.947 1.947 0 0 0 1.032-3.598l-.848-.531a2.6 2.6 0 0 0-1.294-.393l-9.748-.305a10 10 0 0 0-8.633 4.449l-.11.165a10 10 0 0 0-1.238 2.606l-1.129 3.67a10 10 0 0 0-.442 2.941v13.69a10 10 0 0 0 3.753 7.808l.831.665a10 10 0 0 0 6.647 2.184l7.452-.298a5.8 5.8 0 0 0 2.48-.673m76.242-5.88-.783-29.002A4.38 4.38 0 0 1 280.5 142h5.269c.818 0 1.632.1 2.425.299l2.056.513a7 7 0 0 1 1.442.534l.125.063a6.65 6.65 0 0 1 3.683 5.958v9.017c0 .739-.119 1.473-.353 2.175l-.673 2.02a2.84 2.84 0 0 1-1.914 1.833 2.84 2.84 0 0 0-2.06 2.73v.93c0 .924.315 1.821.892 2.543l3.108 3.885 1.509 1.509a2.108 2.108 0 0 1-2.321 3.429l-1.511-.648a4.5 4.5 0 0 1-1.227-.779l-1.567-1.393c-1.55-1.378-2.618-3.207-3.173-5.205-.925-3.337-2.376-7.591-2.71-2.913-.226 3.166-.35 5.412-.418 6.922-.067 1.489-1.159 2.758-2.629 3.002a3.047 3.047 0 0 1-3.548-2.924m-15.994-1.771.119.095a3.462 3.462 0 0 0 5.129-.922l.199-.332c.42-.7.642-1.501.642-2.318v-11.35c0-.6-.054-1.199-.161-1.789l-.679-3.73a10 10 0 0 0-.475-1.723l-.791-2.11a7 7 0 0 0-1.095-1.926l-.98-1.225a1.73 1.73 0 0 0-2.576-.142l-.507.507a2.9 2.9 0 0 0-.835 1.772l-.832 8.741q-.069.723-.033 1.448l.403 8.063c.041.805.178 1.602.41 2.374l.816 2.721a3.74 3.74 0 0 0 1.246 1.846m-45.791-16.463-1.125-3.658a4.93 4.93 0 0 1 .096-3.183l.402-1.073a2.75 2.75 0 0 1 3.113-1.731l.923.185a5.7 5.7 0 0 1 1.82.703l.343.206a4.52 4.52 0 0 1 2.163 4.444l-.186 1.493a3.96 3.96 0 0 1-2.37 3.148l-2.091.896a2.29 2.29 0 0 1-3.088-1.43m23.42 1.517-.237-.197a4.05 4.05 0 0 1-1.444-2.777l-.204-2.448a4.03 4.03 0 0 1 1.166-3.182l.395-.395a2.68 2.68 0 0 1 3.497-.249l.687.515a5.25 5.25 0 0 1 2.1 4.2v1.203a4.3 4.3 0 0 1-.484 1.975l-.151.289a3.485 3.485 0 0 1-5.325 1.066m44.763-1.175c-.327-.783-.726-1.7-1.098-2.538a5.74 5.74 0 0 1-.422-3.268l.493-2.956a2.68 2.68 0 0 1 3.084-2.203l.962.161a5.6 5.6 0 0 1 2.172.859l.141.094a5.17 5.17 0 0 1 2.252 5.035l-.194 1.355a8.4 8.4 0 0 1-.804 2.575l-.491.983a3.76 3.76 0 0 1-1.109 1.328l-.472.355a2.4 2.4 0 0 1-1.824.444c-1.15-.192-2.24-1.149-2.69-2.224" fill="#D1D1D1"/><path d="m255.489 178.203-.871.49zm-2.144-3.811.872-.491zm5.155 6.108-.243.97.059.015.06.007zm2.967.371-.124.992zm2.071.043-.083-.997zm3.488-.291.083.996zm2.759-.857.496.868zm3.022-3.687.949.317zm.68-2.04-.949-.316zM274 165h1v-.062l-.008-.062zm-1-8 .992-.124-.002-.02-.004-.02zm-1.253-7.517-.986.165zm-.919-2.828.894-.447zm-.484-.967-.894.448zm-2.277-2.917.651-.759zm-.151-.129-.651.759zm-4.414-1.999-.141.99zm-.074-.01.142-.99zm-1.862-.048.091.996zm-6.529 4.559-.903-.429zm-1.627 3.434-.903-.428zm-.959 4.048.999.024zm-.387 16.631-1-.024zm-20.896-20.208-1 .027zm.776 27.952-.999.028zm4.839-35.781.295.956zm1.462-.303-.11-.994zm.626-.069.11.994zm5.893 1.16-.479.877zm.349.19.479-.878zm3.786 3.634-.857.514zm.176.293.857-.515zm-2.532 22.918.708-.707zm5.126 5.126.707-.708zm.961 2-.994.11zm.032.292.994-.111zm-2.701 3.377.11.994zm-2.5-.877-.707.707zM245 176.5l-.789.614.038.049.044.044zm-3.276-4.212-.789.614zm-.426-.591-.832.555zM238.5 167.5l.832-.555zm-30.059 7.497 1-.015zm-.358-24.333-1 .015zm4.318 27.436-.225-.975zm2.524-3.266-1 .023zm.575-8.334.949-.316zm9.669 10.702.67-.742zm.746.476.394-.919zm.116.05-.394.919zm3.67-1.881-.977-.217zm-.624-2.373.743-.669zm-4.397-4.885-.743.669zm.843-7.22.569.822zm2.081-3.771-.999-.044zm.264-6.051.999.043zm-1.853-5.363.759-.65zm-2.41-1.882.447-.894zm-.494-.246.448-.895zm-9.697-.722.295.956zm-9.385 36.251.47.882zm-3.366 1.795.471.882zm4.146-5.937-.76.651zm-5.095-.719.275.962zm-4.762 1.361-.275-.961zm-2.917.049-.242.97zm-.517-.129.243-.971zm-3.775-5.14.998.059zm4.618-4.688.074.997zm7.149-.53-.073-.997zm2.423-2.094.976.216zm-1.97-3.187.243-.97zm-1.09-.273-.243.97zm-.757-.11-.045.999zm-4.397-.2.045-.999zm-5.054-6.398.982.187zm14.326-4.712-.555-.832zm-.049-3.271-.53.848zm-.848-.531.53-.848zm-1.294-.393.031-.999zm-9.748-.305.031-.999zm-8.743 4.614-.832-.555zm-1.238 2.606-.955-.294zm-1.129 3.67-.956-.294zm3.311 24.439-.625.781zm.831.665-.624.781zm6.647 2.184-.04-.999zm7.452-.298.04.999zm77.939-35.555-1 .027zm.783 29.002-.999.027zm11.289-33.201-.242.97zm2.056.513.242-.97zm1.442.534.447-.895zm.125.063-.447.894zm3.144 3.334.919-.394zm.186 13.816-.949-.317v.001zm-.673 2.02.948.316zm-1.914 1.833.274.961zm-1.168 6.203.781-.624zm3.108 3.885-.781.625.035.043.039.039zm1.509 1.509-.707.707zm0 2.982-.707-.707zm-2.321.447-.394.919zm-1.511-.648.394-.919zm-1.227-.779.664-.748zm-1.567-1.393-.664.748zm-3.173-5.205.964-.268zm-2.71-2.913.997.071zm-.418 6.922.999.045zm-2.629 3.002.165.987zm-19.423-4.6-.625.781zm-.119-.095.625-.781zm3.375.676.316.948zm1.873-1.503.857.515zm.199-.332.857.515zm.481-15.457.984-.179zm-.679-3.73.984-.179zm-.475-1.723.936-.351zm-.791-2.11.936-.351zm-1.095-1.926-.781.625zm-.98-1.225.781-.624v-.001zm-.804-.561-.316.949zm-1.772.419-.707-.708zm-.507.507.707.707zm-.835 1.772.996.095zm-.832 8.741.995.095zm-.033 1.448-.999.05zm.403 8.063-.998.05zm.41 2.374-.958.288zm.816 2.721.958-.288zm-45.67-18.275.955-.294zm1.125 3.658.956-.294zm-1.029-6.841.936.351zm.402-1.073-.936-.352zm1.907-1.702.243.97zm1.206-.029.196-.98zm.923.185-.196.98zm1.82.703-.515.858zm.343.206-.514.858zm1.874 2.201.929-.371zm.289 2.243-.992-.124zm-.186 1.493.992.124zm-1.13 2.309-.707-.707zm-1.24.839-.394-.919zm-2.091.896.394.92zm-1.456.117.243-.97zm21.551-.227.64-.768zm.237.197-.641.768zm-1.681-2.974.997-.083zm-.204-2.448.997-.083zm1.166-3.182.707.708zm.395-.395-.707-.708v.001zm3.497-.249-.6.8zm.687.515.6-.8zm1.05 1.05-.8.6zm.566 6.328-.887-.462zm-.151.289-.886-.463zm-2.051 1.715.299.955zm40.391-4.362.914-.405zm1.098 2.538-.922.385zm-1.52-5.806-.986-.165zm.493-2.956-.987-.164zm1.445-1.956.447.894zm1.639-.247.164-.986zm.962.161.164-.987zm2.172.859-.555.832zm.141.094.555-.832zm2.233 3.453-.986.165zm.019 1.582-.99-.141zm-.194 1.355.99.142zm-.804 2.575-.894-.447zm-.491.983.894.447zm-3.405 2.127.165-.986zm-71.571-3.498.993-.117zm-.614-5.216-.993.117zm8.528 4.71.894.447zm-.258.515.895.447zm-1.687 1.822.514.858zm-1.009.606-.515-.858zM237 155l-.996-.091-.004.046V155zm.284-3.123-.996-.09zm5.724-1.983-.726.688zm.485.512.726-.687zm1.197 3.766.99.141zm-.19 1.328.97.243.013-.051.007-.051zm-.421 1.683-.97-.242zm15.358 14.154-1 .017zm-.401-23.244-1 .017zm4.302-1.42-.814.582zm1.126 1.577-.814.581zm.801 1.633-.958.288zm.946 3.152.957-.287zm.38 1.968-.996.091zM267 159.5h1v-.045l-.004-.046zm0 11 .994.11.006-.055v-.055zm-.132 1.184-.993-.11zm15.662-14.349.984-.174zm-.865-4.897-.984.173zm.022-1.872.98.197zm.077-.386-.981-.196zm8.954.279-.994.111zm.138 1.242.994-.11zm-.173 2.567.97.242zm-.512 2.046-.97-.242zm-.522 1.3-.868-.497zm-.499.873-.868-.496zm-3.457 1.782.099-.995zm-45.871-11.323.232.972zm1.318 10.917.152.989zm-19.099-10.206-.814.581zm-6.04-1.991.316.949zm-1.168 9.916-.869.496zm74.07-10.237-.586.81zm-27.831-1.641.142.99zm-4.711 32.009-2.144-3.812-1.743.981 2.144 3.811zm2.382 1.817a3.8 3.8 0 0 1-2.382-1.817l-1.743.98a5.8 5.8 0 0 0 3.639 2.777zm2.848.349-2.967-.371-.248 1.984 2.967.371zm1.864.038a9 9 0 0 1-1.864-.038l-.248 1.984c.755.095 1.519.11 2.278.047zm3.488-.291-3.488.291.166 1.993 3.488-.291zm2.345-.728c-.719.411-1.52.66-2.345.728l.166 1.993a7.7 7.7 0 0 0 3.172-.985zm2.57-3.135a5.68 5.68 0 0 1-2.57 3.135l.993 1.736a7.68 7.68 0 0 0 3.475-4.238zm.68-2.04-.68 2.04 1.898.633.68-2.04zm.462-2.846a9 9 0 0 1-.462 2.846l1.898.633c.373-1.122.564-2.296.564-3.479zm0-5.877v5.877h2V165zm-.992-7.876 1 8 1.984-.248-1-8zm-1.247-7.476 1.253 7.516 1.972-.328-1.252-7.517zm-.828-2.546c.401.803.68 1.661.828 2.546l1.973-.329a11 11 0 0 0-1.012-3.111zm-.483-.966.483.966 1.789-.894-.483-.967zm-2.034-2.605a8.3 8.3 0 0 1 2.034 2.605l1.789-.895a10.4 10.4 0 0 0-2.521-3.229zm-.151-.13.151.13 1.302-1.519-.151-.129zm-3.904-1.768a7.67 7.67 0 0 1 3.904 1.768l1.302-1.518a9.67 9.67 0 0 0-4.924-2.23zm-.074-.01.074.01.282-1.98-.073-.01zm-1.63-.042a7 7 0 0 1 1.63.042l.283-1.98a9 9 0 0 0-2.094-.054zm-5.716 3.991a7.03 7.03 0 0 1 5.716-3.991l-.181-1.992a9.03 9.03 0 0 0-7.342 5.126zm-1.627 3.434 1.627-3.434-1.807-.857-1.627 3.435zm-.864 3.644a9 9 0 0 1 .864-3.644l-1.807-.856a11 11 0 0 0-1.056 4.453zm-.386 16.63.386-16.63-1.999-.047-.387 16.63zm1.153 4.621a9 9 0 0 1-1.153-4.621l-2-.047a11 11 0 0 0 1.41 5.649zm-24.049-24.825.777 27.953 1.999-.056-.776-27.952zm6.321-8.811a8.96 8.96 0 0 0-6.321 8.811l2-.055a6.96 6.96 0 0 1 4.91-6.845zm1.646-.342a9 9 0 0 0-1.646.342l.589 1.911a7 7 0 0 1 1.278-.265zm.626-.069-.626.069.221 1.988.625-.069zm6.482 1.276a11 11 0 0 0-6.482-1.276l.22 1.988a9 9 0 0 1 5.304 1.043zm.349.19-.349-.19-.958 1.755.349.191zm4.165 3.997a11 11 0 0 0-4.165-3.997l-.958 1.756a9 9 0 0 1 3.408 3.27zm.175.293-.175-.293-1.715 1.029.175.293zm1.568 5.66a11 11 0 0 0-1.568-5.66l-1.715 1.029c.84 1.399 1.283 3 1.283 4.631zm0 9.202v-9.202h-2v9.202zm-3.21 4.111a4.236 4.236 0 0 0 3.21-4.111h-2a2.24 2.24 0 0 1-1.695 2.171zm-1.039 3.753c-1.23-1.23-.648-3.331 1.039-3.753l-.485-1.94c-3.196.799-4.298 4.778-1.969 7.108zm5.125 5.125-5.125-5.125-1.415 1.415 5.125 5.125zm1.248 2.597a4.36 4.36 0 0 0-1.248-2.597l-1.415 1.415c.378.377.616.872.675 1.403zm.032.292-.032-.292-1.988.221.032.292zm-3.585 4.482a4.06 4.06 0 0 0 3.585-4.482l-1.988.221a2.06 2.06 0 0 1-1.818 2.273zm-3.317-1.164a4.06 4.06 0 0 0 3.317 1.164l-.221-1.988a2.06 2.06 0 0 1-1.682-.59zm-2.461-2.461 2.461 2.461 1.414-1.414-2.461-2.461zm-3.358-4.305 3.276 4.212 1.578-1.228-3.275-4.212zm-.469-.65q.223.334.469.65l1.579-1.228a9 9 0 0 1-.384-.532zm-2.798-4.197 2.798 4.197 1.664-1.11-2.798-4.197zM236.5 171h1v-.062l.004-.189c.003-.163.011-.394.026-.662.03-.545.089-1.21.201-1.766q.086-.422.18-.647c.075-.179.097-.134-.013-.061a.6.6 0 0 1-.325.096.5.5 0 0 1-.229-.052c-.012-.006.102.065.324.398l1.664-1.11c-.278-.417-.602-.799-.996-1.024a1.53 1.53 0 0 0-.763-.212c-.301 0-.568.096-.784.24-.391.261-.603.666-.724.955-.133.32-.227.68-.296 1.025a15 15 0 0 0-.236 2.047 21 21 0 0 0-.032.941l-.001.059V171zm1 5.5V171h-2v5.5zM234 180a3.5 3.5 0 0 0 3.5-3.5h-2a1.5 1.5 0 0 1-1.5 1.5zm-3.055-2.971A3.056 3.056 0 0 0 234 180v-2c-.572 0-1.04-.455-1.056-1.027zm-21.504-2.047-.358-24.332-2 .029.358 24.333zm2.735 2.143a2.233 2.233 0 0 1-2.735-2.143l-2 .03a4.233 4.233 0 0 0 5.185 4.062zm1.749-2.268a2.27 2.27 0 0 1-1.749 2.268l.45 1.949a4.27 4.27 0 0 0 3.299-4.262zm2.524-8.673a3 3 0 0 0-.204-.48 1.4 1.4 0 0 0-.2-.274 1.1 1.1 0 0 0-.517-.314 1.06 1.06 0 0 0-.83.118 1.15 1.15 0 0 0-.372.371c-.114.182-.17.377-.2.498-.125.496-.183 1.348-.215 2.26-.066 1.896-.03 4.543.014 6.494l2-.045c-.044-1.951-.079-4.546-.015-6.379.033-.953.091-1.588.155-1.843.017-.067.013-.014-.045.078a.9.9 0 0 1-.283.275.94.94 0 0 1-.733.103.9.9 0 0 1-.413-.243.5.5 0 0 1-.087-.115c-.007-.012.011.018.047.128zm9.39 10.276a118 118 0 0 1-5.069-4.865c-1.041-1.069-2.045-2.161-2.839-3.14-.821-1.013-1.324-1.797-1.482-2.271l-1.898.632c.285.854 1.007 1.887 1.826 2.898.848 1.046 1.899 2.187 2.96 3.277a121 121 0 0 0 5.161 4.953zm.47.299a1.7 1.7 0 0 1-.47-.299l-1.341 1.484c.308.278.652.494 1.023.653zm.116.05-.116-.05-.788 1.838.116.05zm2.299-1.179a1.678 1.678 0 0 1-2.299 1.179l-.788 1.838a3.68 3.68 0 0 0 5.04-2.583zm-.39-1.487c.363.404.508.957.39 1.487l1.953.434a3.68 3.68 0 0 0-.857-3.259zm-4.397-4.885 4.397 4.885 1.486-1.338-4.397-4.885zm1.017-8.712c-2.895 2.005-3.373 6.095-1.017 8.712l1.486-1.338a3.842 3.842 0 0 1 .669-5.729zm1.651-2.992a3.84 3.84 0 0 1-1.651 2.992l1.138 1.645a5.84 5.84 0 0 0 2.511-4.55zm.263-6.05-.263 6.05 1.998.087.264-6.051zm-1.612-4.669a6.72 6.72 0 0 1 1.612 4.669l1.999.086a8.72 8.72 0 0 0-2.093-6.056zm-2.098-1.638a6.7 6.7 0 0 1 2.098 1.638l1.518-1.301a8.7 8.7 0 0 0-2.722-2.126zm-.494-.247.494.247.894-1.789-.493-.247zm-4.025-.95c1.398 0 2.776.325 4.025.95l.895-1.789a11 11 0 0 0-4.92-1.161zm-3.003 0h3.003v-2h-3.003zm-1.927.29a6.6 6.6 0 0 1 1.927-.29v-2c-.853 0-1.701.127-2.516.378zm-4.626 6.36a6.55 6.55 0 0 1 4.626-6.36l-.589-1.912a8.555 8.555 0 0 0-6.037 8.301zm-5.525 28.052-3.365 1.795.941 1.765 3.365-1.795zm.491-2.608a1.7 1.7 0 0 1-.491 2.608l.941 1.765a3.7 3.7 0 0 0 1.069-5.675zm-1.291-.594a1.7 1.7 0 0 1 1.291.594l1.519-1.302a3.7 3.7 0 0 0-2.81-1.292zm-1.441 0h1.441v-2h-1.441zm-1.328.186a5 5 0 0 1 1.328-.186v-2c-.635 0-1.267.088-1.877.263zm-4.763 1.361 4.763-1.361-.549-1.923-4.763 1.361zm-3.433.057a6.64 6.64 0 0 0 3.433-.057l-.549-1.923a4.65 4.65 0 0 1-2.399.04zm-.517-.129.517.129.485-1.94-.517-.13zm-4.531-6.169a6 6 0 0 0 4.531 6.169l.485-1.941a3.996 3.996 0 0 1-3.02-4.11zm5.542-5.626a5.995 5.995 0 0 0-5.542 5.626l1.996.118a3.996 3.996 0 0 1 3.694-3.75zm7.15-.53-7.15.53.148 1.994 7.149-.529zm1.52-1.314a1.69 1.69 0 0 1-1.52 1.314l.147 1.995a3.69 3.69 0 0 0 3.325-2.876zm-1.236-2a1.684 1.684 0 0 1 1.236 2l1.952.433a3.684 3.684 0 0 0-2.703-4.373zm-1.091-.273 1.091.273.485-1.94-1.091-.273zm-.559-.081q.283.013.559.081l.485-1.94a5 5 0 0 0-.953-.139zm-4.398-.2 4.398.2.091-1.998-4.398-.2zm-5.991-7.584c-.728 3.824 2.102 7.407 5.991 7.584l.091-1.998a4.394 4.394 0 0 1-4.117-5.212zm6.282-5.198a6.396 6.396 0 0 0-6.282 5.198l1.965.374a4.394 4.394 0 0 1 4.317-3.572zm7.946 0h-7.946v2h7.946zm.526-.159a.95.95 0 0 1-.526.159v2c.582 0 1.151-.172 1.635-.495zm-.024-1.591a.947.947 0 0 1 .024 1.591l1.109 1.664c1.781-1.187 1.742-3.817-.073-4.951zm-.848-.531.848.531 1.06-1.696-.848-.531zm-.795-.241c.282.008.556.092.795.241l1.06-1.696a3.6 3.6 0 0 0-1.793-.544zm-9.748-.305 9.748.305.062-1.999-9.748-.305zm-7.77 4.003a9 9 0 0 1 7.77-4.003l.062-1.999a11 11 0 0 0-9.496 4.893zm-.11.166.11-.166-1.664-1.109-.11.165zm-1.114 2.345a9 9 0 0 1 1.114-2.345l-1.664-1.11a11 11 0 0 0-1.361 2.867zm-1.129 3.67 1.129-3.67-1.911-.588-1.13 3.67zm-.398 2.647c0-.897.134-1.79.398-2.647l-1.912-.588a11 11 0 0 0-.486 3.235zm0 13.69v-13.69h-2v13.69zm3.378 7.028a9 9 0 0 1-3.378-7.028h-2a11 11 0 0 0 4.128 8.589zm.831.665-.831-.665-1.25 1.561.832.665zm5.982 1.965a9 9 0 0 1-5.982-1.965l-1.249 1.561a11 11 0 0 0 7.311 2.402zm7.452-.299-7.452.299.08 1.998 7.452-.298zm2.05-.556a4.75 4.75 0 0 1-2.05.556l.08 1.999a6.8 6.8 0 0 0 2.911-.79zm74.929-33.972.784 29.002 1.999-.054-.784-29.002zM280.5 141a5.38 5.38 0 0 0-5.378 5.525l1.999-.054A3.38 3.38 0 0 1 280.5 143zm5.269 0H280.5v2h5.269zm2.668.328a11 11 0 0 0-2.668-.328v2c.736 0 1.469.09 2.183.269zm2.055.514-2.055-.514-.485 1.941 2.055.514zm1.647.609a8 8 0 0 0-1.647-.609l-.485 1.941q.644.161 1.238.457zm.125.063-.125-.063-.894 1.789.125.063zm3.616 3.835a7.66 7.66 0 0 0-3.616-3.835l-.894 1.789a5.66 5.66 0 0 1 2.672 2.834zm.62 3.018a7.7 7.7 0 0 0-.62-3.018l-1.838.788c.302.705.458 1.464.458 2.23zm0 4.133v-4.133h-2v4.133zm0 4.884V153.5h-2v4.884zm-.404 2.491a7.9 7.9 0 0 0 .404-2.491h-2c0 .632-.102 1.259-.302 1.858zm-.674 2.02.674-2.02-1.898-.632-.673 2.02zm-2.588 2.478a3.84 3.84 0 0 0 2.588-2.478l-1.897-.632a1.84 1.84 0 0 1-1.24 1.187zm-1.334 1.769c0-.821.545-1.543 1.334-1.769l-.549-1.923a3.84 3.84 0 0 0-2.785 3.692zm0 .93v-.93h-2v.93zm.673 1.919a3.07 3.07 0 0 1-.673-1.919h-2c0 1.151.392 2.269 1.111 3.168zm3.108 3.884-3.108-3.884-1.562 1.249 3.108 3.885zm1.435 1.427-1.509-1.509-1.414 1.414 1.509 1.509zm0 4.396a3.11 3.11 0 0 0 0-4.396l-1.414 1.414a1.11 1.11 0 0 1 0 1.568zm-3.422.659a3.11 3.11 0 0 0 3.422-.659l-1.414-1.414a1.11 1.11 0 0 1-1.22.235zm-1.511-.648 1.511.648.788-1.838-1.511-.648zm-1.498-.951c.445.396.951.717 1.498.951l.788-1.838a3.5 3.5 0 0 1-.957-.608zm-1.566-1.392 1.566 1.392 1.329-1.495-1.566-1.392zm-3.472-5.686c.6 2.164 1.763 4.166 3.472 5.686l1.329-1.495c-1.392-1.237-2.365-2.892-2.874-4.726zm-.75-3.109c.041-.561.095-.95.153-1.205.069-.305.111-.272.008-.163a.77.77 0 0 1-.502.225.74.74 0 0 1-.456-.113c-.081-.055-.049-.065.069.138.207.357.459.975.728 1.762.263.769.521 1.64.75 2.465l1.927-.535a47 47 0 0 0-.784-2.576c-.274-.803-.579-1.581-.892-2.12-.142-.245-.361-.578-.678-.791a1.26 1.26 0 0 0-.796-.225 1.23 1.23 0 0 0-.813.389c-.301.316-.434.758-.512 1.103q-.132.59-.196 1.504zm-.416 6.896c.067-1.5.191-3.737.416-6.896l-1.994-.142a265 265 0 0 0-.42 6.948zm-3.463 3.944c1.949-.325 3.376-1.999 3.463-3.944l-1.998-.09c-.046 1.032-.804 1.896-1.794 2.061zm-4.712-3.884a4.048 4.048 0 0 0 4.712 3.884l-.329-1.973a2.05 2.05 0 0 1-2.384-1.965zm-14.251-2.484-.119-.095-1.25 1.562.119.095zm2.315.413a2.46 2.46 0 0 1-2.315-.413l-1.25 1.562a4.46 4.46 0 0 0 4.197.748zm1.331-1.068a2.46 2.46 0 0 1-1.331 1.068l.632 1.897a4.46 4.46 0 0 0 2.414-1.936zm.199-.332-.199.332 1.715 1.029.199-.332zm.5-1.804c0 .635-.173 1.259-.5 1.804l1.715 1.029a5.5 5.5 0 0 0 .785-2.833zm0-4.252v4.252h2V166zm0-7.098V166h2v-7.098zm-.145-1.61q.144.798.145 1.61h2c0-.66-.059-1.319-.177-1.968zm-.678-3.731.678 3.731 1.968-.358-.679-3.73zm-.428-1.55q.283.756.428 1.55l1.967-.357a11 11 0 0 0-.523-1.895zm-.791-2.109.791 2.109 1.872-.702-.791-2.11zm-.94-1.653c.399.498.716 1.055.94 1.653l1.872-.703a8 8 0 0 0-1.25-2.2zm-.98-1.225.98 1.225 1.562-1.25-.98-1.224zm-.339-.237a.74.74 0 0 1 .34.237l1.561-1.25a2.7 2.7 0 0 0-1.269-.884zm-.748.177a.73.73 0 0 1 .748-.177l.632-1.897a2.73 2.73 0 0 0-2.795.659zm-.508.507.508-.507-1.415-1.415-.507.508zm-.546 1.16c.042-.439.235-.848.546-1.16l-1.414-1.414a3.9 3.9 0 0 0-1.123 2.384zm-.833 8.741.833-8.741-1.991-.19-.833 8.742zm-.029 1.303a9 9 0 0 1 .029-1.303l-1.991-.189q-.075.794-.036 1.592zm.403 8.063-.403-8.063-1.998.1.404 8.063zm.368 2.137a9 9 0 0 1-.368-2.137l-1.997.1c.044.886.195 1.762.45 2.612zm.817 2.72-.817-2.72-1.915.575.816 2.72zm.913 1.353a2.74 2.74 0 0 1-.913-1.353l-1.916.575a4.75 4.75 0 0 0 1.579 2.34zm-48.497-19.046 1.126 3.658 1.911-.588-1.126-3.658zm.115-3.828a5.94 5.94 0 0 0-.115 3.828l1.911-.588a3.94 3.94 0 0 1 .077-2.538zm.403-1.074-.403 1.074 1.873.702.403-1.073zm2.601-2.32a3.75 3.75 0 0 0-2.601 2.32l1.873.703a1.75 1.75 0 0 1 1.213-1.083zm1.644-.039a3.7 3.7 0 0 0-1.644.039l.485 1.94c.251-.063.513-.069.767-.018zm.923.184-.923-.184-.392 1.961.923.184zm2.138.827a6.7 6.7 0 0 0-2.138-.827l-.392 1.961c.53.106 1.038.303 1.501.581zm.344.206-.344-.206-1.029 1.715.344.206zm2.288 2.687a5.52 5.52 0 0 0-2.288-2.687l-1.029 1.715a3.53 3.53 0 0 1 1.46 1.714zm.352 2.738a5.5 5.5 0 0 0-.352-2.738l-1.857.742c.221.554.299 1.155.225 1.748zm-.186 1.493.186-1.493-1.984-.248-.187 1.493zm-1.415 2.892a4.96 4.96 0 0 0 1.415-2.892l-1.985-.248a2.96 2.96 0 0 1-.844 1.726zm-1.553 1.052a5 5 0 0 0 1.553-1.052l-1.414-1.414a3 3 0 0 1-.927.627zm-2.091.896 2.091-.896-.788-1.839-2.09.896zm-2.092.167a3.3 3.3 0 0 0 2.092-.167l-.787-1.839a1.3 1.3 0 0 1-.82.066zm-2.345-2.223a3.29 3.29 0 0 0 2.345 2.223l.485-1.94a1.29 1.29 0 0 1-.919-.871zm23.498 1.794.236.197 1.281-1.536-.237-.197zm-1.8-3.462a5.05 5.05 0 0 0 1.8 3.462l1.28-1.536a3.05 3.05 0 0 1-1.087-2.092zm-.204-2.448.204 2.448 1.993-.166-.204-2.448zm1.454-3.972a5.03 5.03 0 0 0-1.454 3.972l1.993-.166a3.02 3.02 0 0 1 .876-2.391zm.396-.395-.396.395 1.415 1.415.395-.396zm2.599-1.077c-.975 0-1.909.387-2.599 1.076l1.414 1.415a1.68 1.68 0 0 1 1.185-.491zm2.205.735a3.68 3.68 0 0 0-2.205-.735v2c.363 0 .715.118 1.005.335zm.687.515-.687-.515-1.2 1.6.687.515zm1.25 1.25a6.2 6.2 0 0 0-1.25-1.25l-1.2 1.6q.485.365.85.85zm1.25 3.75a6.25 6.25 0 0 0-1.25-3.75l-1.6 1.2c.552.736.85 1.63.85 2.55zm0 1.203v-1.203h-2v1.203zm-.598 2.438a5.3 5.3 0 0 0 .598-2.438h-2c0 .527-.127 1.046-.371 1.513zm-.15.288.15-.288-1.773-.925-.15.288zm-2.639 2.208a4.5 4.5 0 0 0 2.639-2.208l-1.773-.925a2.5 2.5 0 0 1-1.463 1.224zm-4.214-.836a4.49 4.49 0 0 0 4.214.836l-.597-1.909a2.49 2.49 0 0 1-2.336-.463zm43.392-4.075c.37.835.766 1.744 1.09 2.517l1.845-.771c-.331-.793-.734-1.716-1.107-2.557zm-.494-3.839a6.73 6.73 0 0 0 .494 3.839l1.828-.811a4.74 4.74 0 0 1-.35-2.699zm.492-2.955-.492 2.955 1.972.329.493-2.956zm1.984-2.687a3.68 3.68 0 0 0-1.984 2.687l1.973.328c.088-.53.425-.986.906-1.226zm2.251-.338a3.68 3.68 0 0 0-2.251.338l.895 1.789a1.67 1.67 0 0 1 1.027-.154zm.962.16-.962-.16-.329 1.973.962.16zm2.563 1.014a6.6 6.6 0 0 0-2.563-1.014l-.329 1.973a4.55 4.55 0 0 1 1.782.705zm.141.094-.141-.094-1.11 1.664.142.094zm2.665 4.121a6.17 6.17 0 0 0-2.665-4.121l-1.109 1.664a4.18 4.18 0 0 1 1.801 2.786zm.022 1.888a6.2 6.2 0 0 0-.022-1.888l-1.973.329a4.2 4.2 0 0 1 .015 1.276zm-.194 1.355.194-1.355-1.98-.283-.194 1.355zm-.9 2.88a9.4 9.4 0 0 0 .9-2.88l-1.98-.283a7.4 7.4 0 0 1-.708 2.269zm-.491.983.491-.983-1.788-.894-.492.983zm-1.403 1.681a4.76 4.76 0 0 0 1.403-1.681l-1.789-.894a2.76 2.76 0 0 1-.814.975zm-.472.355.472-.355-1.2-1.6-.472.355zm-2.588.631a3.4 3.4 0 0 0 2.588-.631l-1.2-1.6c-.303.227-.686.32-1.059.258zm-3.448-2.826c.564 1.35 1.915 2.57 3.448 2.826l.329-1.973c-.768-.128-1.597-.823-1.932-1.624zm-66.966-1.776-.614-5.215-1.986.233.614 5.216zm1.611-7.717h.823v-2h-.823zm4.974 4.151v.364h2v-.364zm-.558 2.73-.258.515 1.789.894.257-.515zm-1.566 1.927-1.009.605 1.029 1.715 1.009-.605zm18.124-.996V155h-2v1.312zm-.004-1.221.284-3.123-1.992-.181-.284 3.122zm4.286-4.509.484.512 1.453-1.375-.484-.512zm1.418 3.448-.19 1.329 1.98.282.19-1.328zm-.17 1.227-.421 1.684 1.94.485.421-1.683zm16.907 16.063-.401-23.244-2 .034.401 23.244zm2.087-24.065 1.126 1.576 1.628-1.163-1.126-1.576zm1.783 2.916.946 3.151 1.915-.574-.945-3.152zm1.288 4.923.409 4.497 1.992-.182-.409-4.496zM266 159.5v5.5h2v-5.5zm0 5.5v5.5h2V165zm.006 5.39-.131 1.184 1.987.221.132-1.185zm17.508-13.229-.864-4.897-1.969.347.864 4.898zm-.847-6.398.078-.387-1.962-.392-.077.386zm7.057-.193.138 1.242 1.988-.221-.138-1.242zm-.011 3.455-.512 2.047 1.941.485.511-2.047zm-.932 3.092-.499.874 1.737.992.499-.873zm-.499.874a2.57 2.57 0 0 1-2.49 1.283l-.199 1.99a4.57 4.57 0 0 0 4.426-2.281zm.919-1.919a4 4 0 0 1-.42 1.045l1.737.993a6 6 0 0 0 .624-1.553zm.661-4.26c.082.74.032 1.49-.149 2.213l1.94.485a8.3 8.3 0 0 0 .197-2.919zm-47.096-.718a3.54 3.54 0 0 1 .934 2.936l1.98.283a5.55 5.55 0 0 0-1.461-4.594zm-2.712-1.176a2.33 2.33 0 0 1 2.228.664l1.453-1.375a4.32 4.32 0 0 0-4.145-1.234zm-1.774 2.05a2.32 2.32 0 0 1 1.774-2.05l-.464-1.945a4.32 4.32 0 0 0-3.302 3.814zm-2.28 4.344a4.593 4.593 0 0 0 5.292 4.54l-.304-1.977a2.594 2.594 0 0 1-2.988-2.563zm-14.816-.416a3.44 3.44 0 0 1-1.308 1.412l1.029 1.715a5.44 5.44 0 0 0 2.068-2.233zm.816-2.881c0 .821-.191 1.631-.558 2.366l1.788.894a7.3 7.3 0 0 0 .77-3.26zm-.773-2.777c.503.704.773 1.548.773 2.413h2a6.15 6.15 0 0 0-1.146-3.575zm-3.378-1.738a4.15 4.15 0 0 1 3.378 1.738l1.627-1.162a6.15 6.15 0 0 0-5.005-2.576zm-1.532.115a2.3 2.3 0 0 1 .709-.115v-2c-.456 0-.909.073-1.341.218zm-1.516 2.387a2.24 2.24 0 0 1 1.516-2.387l-.632-1.897a4.24 4.24 0 0 0-2.87 4.517zm.9 6.084a2.3 2.3 0 0 1-.286-.869l-1.986.234c.067.573.249 1.126.535 1.627zm-1.737.992a4.29 4.29 0 0 0 5.932 1.55l-1.029-1.715a2.29 2.29 0 0 1-3.166-.827zm74.353-9.923a3.45 3.45 0 0 1 1.407 2.415l1.988-.221a5.45 5.45 0 0 0-2.223-3.815zm-2.034-.655c.729 0 1.447.231 2.034.655l1.172-1.621a5.5 5.5 0 0 0-3.206-1.034zm-3.538 2.876c.333-1.665 1.824-2.876 3.538-2.876v-2c-2.651 0-4.977 1.869-5.5 4.484zm-.095 1.888a4.1 4.1 0 0 1 .017-1.501l-1.961-.393a6 6 0 0 0-.025 2.241zm-1.105 5.245a4.57 4.57 0 0 0 4.048 3.755l.199-1.99a2.57 2.57 0 0 1-2.278-2.113zm-15.67 14.065a2.73 2.73 0 0 1-2.711 2.426v2a4.727 4.727 0 0 0 4.698-4.205zm-.622-18.252a9 9 0 0 1 .342 1.772l1.992-.181a11 11 0 0 0-.419-2.165zm-1.603-4.491c.291.407.513.86.657 1.34l1.916-.575a6.6 6.6 0 0 0-.945-1.928zm-2.436-2.137a1.37 1.37 0 0 1 1.31.561l1.628-1.163a3.37 3.37 0 0 0-3.221-1.378zm-1.178 1.382a1.37 1.37 0 0 1 1.178-1.382l-.283-1.98a3.37 3.37 0 0 0-2.895 3.396zm-1.599 23.278a4.727 4.727 0 0 0 4.727 4.646v-2a2.727 2.727 0 0 1-2.727-2.68zm-15.328-14.413a2.59 2.59 0 0 1-2.121 1.934l.304 1.977a4.59 4.59 0 0 0 3.757-3.426z" fill="#D1D1D1"/><path d="m243 267.5-8-1 9.5-37 10 4zm15.144-25.202-7.578 27.637a2.49 2.49 0 0 0 4.776 1.412L264.5 242.5l.5-9h-6.5v6.154c0 .893-.12 1.783-.356 2.644m2.771 27.139-.207 2.273a2.378 2.378 0 0 0 4.524 1.221l5.862-12.56c.27-.579.484-1.183.639-1.803l3.468-13.874a10 10 0 0 0 .299-2.425V232.5l-5.5 1-.454 13.629c-.031.91-.185 1.811-.459 2.679l-2.32 7.348a10 10 0 0 1-.678 1.628l-4.653 8.883a4.7 4.7 0 0 0-.521 1.77" fill="#0034D0"/><path d="m243 267.5-8-1 9.5-37 10 4zm15.144-25.202-7.578 27.637a2.49 2.49 0 0 0 4.776 1.412L264.5 242.5l.5-9h-6.5v6.154c0 .893-.12 1.783-.356 2.644Zm2.771 27.139-.207 2.273a2.378 2.378 0 0 0 4.524 1.221l5.862-12.56c.27-.579.484-1.183.639-1.803l3.468-13.874a10 10 0 0 0 .299-2.425V232.5l-5.5 1-.454 13.629c-.031.91-.185 1.811-.459 2.679l-2.32 7.348a10 10 0 0 1-.678 1.628l-4.653 8.883a4.7 4.7 0 0 0-.521 1.77Z" stroke="#0D0081" stroke-width="2" stroke-linecap="round"/><path d="m247.444 231.51-5.914-2.848a9.157 9.157 0 0 1-3.754-13.168l1.245-1.956a10 10 0 0 1 2.437-2.632l8.273-6.204a10 10 0 0 1 5.094-1.959l12.901-1.173a10 10 0 0 1 1.549-.02l11.878.766c1.861.12 3.651.758 5.169 1.842l4.21 3.008a9.476 9.476 0 0 1 2.618 12.584l-1.966 3.276a10 10 0 0 1-3.112 3.231l-7.082 4.619a10 10 0 0 1-5.463 1.624h-23.745a10 10 0 0 1-4.338-.99m66.188-10.083.018.124a2.853 2.853 0 0 0 5.197 1.179l.935-1.404a3.12 3.12 0 0 1 3.348-1.294l1.372.343a2.01 2.01 0 0 0 1.796-3.477l-4.779-4.096A5.4 5.4 0 0 0 318 211.5l-4.081 8.163a3 3 0 0 0-.287 1.764m19.645-15.469 4.612 3.459a10 10 0 0 0 9.011 1.536l.441-.14a10 10 0 0 0 6.026-5.255l1.545-3.261a10 10 0 0 0 .947-4.835L355 182l-.868-9.986a10 10 0 0 0-.707-2.92l-2.895-7.077a8.885 8.885 0 0 0-8.218-5.517h-.243a9.68 9.68 0 0 0-7.473 3.527l-2.501 3.037a10 10 0 0 0-2.087 4.396l-1.792 8.959a10 10 0 0 0-.192 2.183l.409 18.368a10 10 0 0 0 1.805 5.513l.847 1.209a10 10 0 0 0 2.192 2.266" fill="#950000"/><path d="m247.444 231.51-5.914-2.848a9.157 9.157 0 0 1-3.754-13.168l1.245-1.956a10 10 0 0 1 2.437-2.632l8.273-6.204a10 10 0 0 1 5.094-1.959l12.901-1.173a10 10 0 0 1 1.549-.02l11.878.766c1.861.12 3.651.758 5.169 1.842l4.21 3.008a9.476 9.476 0 0 1 2.618 12.584l-1.966 3.276a10 10 0 0 1-3.112 3.231l-7.082 4.619a10 10 0 0 1-5.463 1.624h-23.745a10 10 0 0 1-4.338-.99Zm66.188-10.083.018.124a2.853 2.853 0 0 0 5.197 1.179l.935-1.404a3.12 3.12 0 0 1 3.348-1.294l1.372.343a2.01 2.01 0 0 0 1.796-3.477l-4.779-4.096A5.4 5.4 0 0 0 318 211.5l-4.081 8.163a3 3 0 0 0-.287 1.764Zm19.645-15.469 4.612 3.459a10 10 0 0 0 9.011 1.536l.441-.14a10 10 0 0 0 6.026-5.255l1.545-3.261a10 10 0 0 0 .947-4.835L355 182l-.868-9.986a10 10 0 0 0-.707-2.92l-2.895-7.077a8.885 8.885 0 0 0-8.218-5.517h-.243a9.68 9.68 0 0 0-7.473 3.527l-2.501 3.037a10 10 0 0 0-2.087 4.396l-1.792 8.959a10 10 0 0 0-.192 2.183l.409 18.368a10 10 0 0 0 1.805 5.513l.847 1.209a10 10 0 0 0 2.192 2.266Z" stroke="#5E0000" stroke-width="2" stroke-linecap="round"/><path d="M348.5 235.903v7.178c0 2.217-.736 4.37-2.093 6.122l-6.81 8.797-1.549 2a8.5 8.5 0 0 1-3.939 2.825L309 271.483l-1.027.354a2.6 2.6 0 0 1-.973.141l-20.298-.882a10 10 0 0 1-4.16-1.109L280 268.672l-1.5-.775-1.25-.647-4.223-2.185a10 10 0 0 1-4.468-4.653l-1.121-2.402a10 10 0 0 1-.938-4.228v-5.126c0-1.741.454-3.451 1.318-4.962l1.362-2.385a10 10 0 0 1 3.613-3.658l3.486-2.05a10 10 0 0 1 5.868-1.349l9.353.748 1 .24 1 .24 20 4.8 1.5.36a4.97 4.97 0 0 0 2.94-.194l9.925-3.817a10 10 0 0 0 2.959-1.777l2.138-1.852 1.153-1 1.443-1.25.525-.455a7.6 7.6 0 0 1 2.046-1.265c2.901-1.209 6.286-.487 8.409 1.83a7.46 7.46 0 0 1 1.962 5.043m17.671-62.652L361.5 191l7 3 9 7 .902-18.488a10 10 0 0 0-.59-3.905L374.5 169.5l-8-21v22.206c0 .859-.111 1.715-.329 2.545m-86.754 51.182-2.425.97a2.856 2.856 0 0 1-3.774-1.75l-.148-.443a4.35 4.35 0 0 1 .236-3.322l.061-.121a4.7 4.7 0 0 1 1.863-1.97l.667-.381a5.53 5.53 0 0 1 3.435-.687l.943.118a3.128 3.128 0 0 1 1.966 5.163l-.973 1.112a4.86 4.86 0 0 1-1.851 1.311M333 193.926v6.421a9.385 9.385 0 0 0 5.899 8.713l1.101.44.444.148a7.396 7.396 0 0 0 9.204-4.269l1.637-4.091a10 10 0 0 0 .715-3.714v-6.908c0-1.427-.306-2.838-.896-4.138l-.979-2.152a10 10 0 0 0-1.629-2.506l-1.49-1.675a5.05 5.05 0 0 0-6.874-.631l-1.146.892a9.3 9.3 0 0 0-2.92 3.88l-2.351 5.876a10 10 0 0 0-.715 3.714" fill="#B1B400"/><path d="m291.5 235-9.353-.748a10 10 0 0 0-5.868 1.349l-3.486 2.05a10 10 0 0 0-3.613 3.658l-1.362 2.385a10 10 0 0 0-1.318 4.962v5.126c0 1.461.32 2.904.938 4.228l1.121 2.402a10 10 0 0 0 4.468 4.653l4.223 2.185M291.5 235l-14.25 32.25M291.5 235l1 .24m-15.25 32.01 1.25.647m0 0 14-32.657m-14 32.657 1.5.775m12.5-33.432 1 .24M280 268.672l2.542 1.315a10 10 0 0 0 4.16 1.109l20.298.882m-27-3.306 13.5-33.192m0 0 20 4.8m-6.5 31.698v0c.33.015.661-.033.973-.141l1.027-.354m-2 .495 6.5-31.698m0 0 1.5.36m0 0v0a4.97 4.97 0 0 0 2.94-.194l9.925-3.817a10 10 0 0 0 2.959-1.777l2.138-1.852M315 240.64l-6 30.843m0 0 25.109-8.658a8.5 8.5 0 0 0 3.939-2.825v0m-1.048.5-4.038-27.5m0 0 1.153-1m0 0 3.933 28m-3.933-28 1.443-1.25m2.49 29.25 1.549-2m0 0 6.81-8.797a10 10 0 0 0 2.093-6.122v-7.178c0-1.867-.7-3.667-1.962-5.043v0c-2.123-2.317-5.508-3.039-8.409-1.83v0a7.6 7.6 0 0 0-2.046 1.265l-.525.455m4.039 27.25-4.039-27.25M361.5 191l4.671-17.749c.218-.83.329-1.686.329-2.545V148.5l8 21 3.312 9.107c.454 1.249.655 2.577.59 3.905L377.5 201l-9-7zM340 209.5l.444.148a7.4 7.4 0 0 0 7.251-1.488v0a7.4 7.4 0 0 0 1.953-2.781l1.637-4.091a10 10 0 0 0 .715-3.714v-6.908c0-1.427-.306-2.838-.896-4.138l-.979-2.152a10 10 0 0 0-1.629-2.506l-1.49-1.675a5.05 5.05 0 0 0-3.774-1.695v0a5.05 5.05 0 0 0-3.1 1.064l-1.146.892a9.3 9.3 0 0 0-2.92 3.88l-2.351 5.876a10 10 0 0 0-.715 3.714v6.421c0 1.094.191 2.179.565 3.207v0a9.4 9.4 0 0 0 5.334 5.506zm-66.782 14.153-.148-.443a4.35 4.35 0 0 1 .236-3.322l.061-.121a4.7 4.7 0 0 1 1.863-1.97l.667-.381a5.53 5.53 0 0 1 3.435-.687l.943.118a3.13 3.13 0 0 1 2.015 1.101v0a3.13 3.13 0 0 1-.049 4.062l-.973 1.112a4.86 4.86 0 0 1-1.851 1.311l-2.425.97a2.86 2.86 0 0 1-2.777-.367v0a2.85 2.85 0 0 1-.997-1.383Z" stroke="#131313" stroke-width="2" stroke-linecap="round"/><path d="M338 199.886v3.687a3.926 3.926 0 0 0 3.927 3.927h.144a4.54 4.54 0 0 0 3.776-2.021l.164-.245a5.1 5.1 0 0 0 .703-1.589l.487-1.951a10 10 0 0 0 .299-2.425v-3.466a4.95 4.95 0 0 0-3.207-4.631l-.68-.255a3.07 3.07 0 0 0-4.026 2.029l-1.206 4.222a10 10 0 0 0-.381 2.718Z" fill="#0034D0" stroke="#131313" stroke-width="2" stroke-linecap="round"/><path d="m341.908 199.638-.205.308a1.732 1.732 0 0 0 2.665 2.186l.262-.262a1.769 1.769 0 1 0-2.722-2.232Z" fill="#131313" stroke="#131313" stroke-width="2" stroke-linecap="round"/></svg>